<?xml version="1.0" encoding="UTF-8"?><svg id="e" xmlns="http://www.w3.org/2000/svg" viewBox="0 0 1400 700"><defs><style>.f{fill:#f90;fill-rule:evenodd;}.g{fill:#00aaeb;}.h{fill:#b4becd;}</style></defs><path class="f" d="M852.49,288.73c-1.15-6.22-8.32-12.82-22.93-21.16l9.29-69.01v-.03l.28-2.11c.03-.23,.05-.47,.05-.7,0-22.55-56.75-38.27-107.69-38.27s-107.67,15.72-107.67,38.27c0,.24,.02,.48,.05,.71l.28,2.11h0s9.2,68.34,9.2,68.34h0l7.57,56.2,1.47,10.89h0l.36,2.69c1.18,7.8,11.18,5.8,10.74-1.36l-9.32-69.2h0l-7.13-52.99c1.34,.78,2.77,1.52,4.28,2.25,.43,.21,.89,.4,1.34,.61,1.3,.6,2.65,1.18,4.05,1.74,.61,.24,1.22,.48,1.84,.71,1.49,.56,3.04,1.1,4.63,1.62,.47,.16,.92,.32,1.4,.47,2.05,.64,4.18,1.26,6.37,1.84,.61,.16,1.24,.32,1.87,.47,1.69,.43,3.41,.84,5.17,1.23,.76,.17,1.52,.34,2.29,.5,1.98,.42,3.99,.82,6.05,1.19,.44,.08,.87,.17,1.32,.25,2.48,.43,5.02,.83,7.59,1.21,.73,.1,1.46,.19,2.2,.29,1.95,.27,3.92,.52,5.92,.75,.81,.09,1.63,.19,2.45,.28,2.4,.25,4.83,.49,7.27,.7,.29,.02,.58,.05,.88,.08,2.73,.22,5.47,.4,8.22,.56,.78,.04,1.57,.08,2.36,.11,2.08,.1,4.16,.18,6.23,.25,.82,.03,1.62,.05,2.44,.08,2.78,.06,5.55,.11,8.32,.11s5.54-.05,8.31-.11c.81-.02,1.63-.05,2.44-.08,2.08-.07,4.16-.15,6.23-.25,.8-.04,1.58-.07,2.37-.11,2.75-.16,5.49-.34,8.22-.56,.3-.03,.6-.06,.9-.08,2.44-.21,4.85-.44,7.24-.7,.83-.09,1.65-.19,2.47-.28,1.98-.23,3.95-.48,5.89-.75,.74-.1,1.49-.19,2.22-.3,2.57-.37,5.1-.77,7.59-1.21,.45-.08,.89-.17,1.34-.25,2.05-.37,4.05-.77,6.03-1.19,.77-.16,1.53-.32,2.29-.5,1.76-.4,3.48-.81,5.17-1.23,.62-.16,1.25-.31,1.86-.47,2.2-.58,4.32-1.2,6.38-1.85,.47-.15,.91-.3,1.37-.46,1.61-.52,3.16-1.07,4.66-1.63,.61-.23,1.22-.46,1.82-.7,1.42-.57,2.78-1.15,4.09-1.76,.43-.2,.88-.39,1.3-.59,1.5-.73,2.94-1.47,4.28-2.25l-9.7,72.01c-19.68-6.32-47.33-17.77-73.49-30.21-.3-5.99-5.22-10.79-11.28-10.79s-11.34,5.09-11.34,11.34,5.09,11.34,11.34,11.34c2.46,0,4.72-.81,6.58-2.14,23.44,11.25,53.38,24.53,76.74,31.27l-11.55,84.99c-.34,6.54,9.66,7.54,10.82,.94l11.3-83.27c5.15,1.09,9.83,1.76,13.72,1.76,5.24,0,9.17-1.11,11.29-3.64,1.89-2.25,2.64-5.09,2.1-7.98Zm-121.18-32.89c-.18-.05-.34-.16-.34-.37,0-.29,.23-.52,.52-.52l.21,.09-.4,.8Zm94.2-55.48c-.37,.33-.84,.67-1.28,1.01-.41,.31-.76,.62-1.23,.94-.49,.32-1.08,.66-1.63,1-.54,.32-1.03,.64-1.63,.96-.6,.32-1.29,.64-1.95,.96-.67,.33-1.3,.65-2.03,.98-.7,.31-1.49,.62-2.24,.93-.81,.32-1.57,.66-2.44,.98-.8,.3-1.7,.6-2.55,.89-.93,.32-1.81,.64-2.8,.96-.91,.29-1.92,.56-2.89,.85-1.03,.3-2.02,.61-3.1,.9-1.04,.28-2.16,.54-3.24,.81-1.12,.28-2.2,.56-3.38,.83-1.17,.27-2.42,.51-3.65,.76-1.18,.24-2.33,.5-3.56,.74-1.3,.25-2.69,.47-4.04,.7-1.24,.21-2.45,.44-3.75,.64-1.41,.22-2.9,.41-4.36,.61-1.32,.18-2.61,.38-3.97,.54-1.59,.19-3.26,.36-4.9,.52-1.32,.14-2.6,.3-3.95,.42-1.82,.17-3.72,.29-5.6,.42-1.26,.1-2.48,.21-3.77,.29-2.05,.12-4.2,.19-6.33,.29-1.17,.04-2.31,.11-3.5,.15-3.35,.1-6.78,.15-10.27,.15s-6.92-.05-10.28-.15c-1.2-.04-2.35-.11-3.54-.16-2.11-.09-4.24-.16-6.28-.28-1.35-.09-2.64-.2-3.97-.3-1.8-.13-3.64-.25-5.39-.41-1.36-.12-2.64-.28-3.96-.42-1.64-.17-3.31-.33-4.89-.52-1.35-.16-2.64-.36-3.95-.54-1.46-.2-2.97-.39-4.38-.61-1.34-.21-2.6-.44-3.89-.67-1.3-.23-2.64-.44-3.89-.68-1.26-.24-2.42-.5-3.63-.75-1.2-.25-2.44-.49-3.59-.76-1.17-.27-2.25-.55-3.37-.83-1.08-.27-2.21-.53-3.24-.81-1.1-.29-2.1-.61-3.14-.91-.95-.28-1.94-.55-2.85-.84-1-.32-1.9-.64-2.84-.97-.84-.29-1.72-.57-2.51-.87-.88-.32-1.64-.66-2.45-.99-.75-.31-1.54-.62-2.23-.92-.73-.33-1.36-.65-2.03-.98-.65-.32-1.36-.64-1.95-.97-.6-.32-1.09-.64-1.63-.97-.55-.33-1.14-.66-1.62-.98-.47-.32-.84-.64-1.25-.96-.43-.33-.89-.67-1.25-.99-.34-.31-.58-.62-.86-.91-.3-.34-.64-.67-.88-1-.21-.29-.31-.57-.46-.87-.17-.34-.38-.67-.48-1l-.15-1.13c.75-9.7,40.47-27.17,96.84-27.17s96.11,17.47,96.85,27.17l-.14,1.13c-.1,.34-.31,.68-.49,1.02-.15,.28-.25,.55-.45,.84-.24,.34-.59,.68-.9,1.02-.28,.3-.51,.6-.84,.9Zm1.26,87.85l1.21-9.02c9.65,5.88,12.64,9.28,13.5,10.72-2.56,.77-7.73,.09-14.71-1.7Z"/><path class="g" d="M811.75,399.15c-1.06-.97-2.45-1.44-3.82-1.44s-2.75,.48-3.8,1.45c-1.05,.97-1.73,2.43-1.73,4.3h.5s-.5,0-.5,0v50.34c0,3.84-2.05,7.28-5.29,9.17l-126.56,60.18h0s-.41,.21-.41,.21h-.03c-1.63,.95-3.47,1.42-5.31,1.42-1.85,0-3.71-.47-5.4-1.41h-.02s-.41-.22-.41-.22h0s-126.66-60.18-126.66-60.18c-3.23-1.89-5.29-5.44-5.29-9.17v-119.46l135.67,64.43h0c.79,.39,1.61,.59,2.44,.59,.83,0,1.66-.2,2.45-.59h0s0,0,0,0h0s119.33-57.34,119.33-57.34h0c1.86-.94,3.2-2.03,4.07-3.18,.88-1.15,1.29-2.36,1.29-3.5,0-1.38-.6-2.63-1.61-3.52-1.01-.89-2.43-1.43-4.07-1.43-1.42,0-3.01,.4-4.65,1.31h0s-116.97,56.29-116.97,56.29l-132.99-63.1c4.72-2.29,27.22-13.04,52.01-24.86,11.94-5.7,24.67-11.16,35.72-17.04h0c2.96-1.48,4.3-3.72,4.3-5.83,0-1.4-.58-2.71-1.58-3.67-1-.96-2.43-1.56-4.08-1.56-1.16,0-2.44,.29-3.78,.95h0s-2.23,1.06-2.23,1.06h0l-85.62,40.72h0c-3.97,1.92-6.75,4.69-8.52,7.99-1.77,3.3-2.54,7.11-2.55,11.13v120.62c0,7.85,4.23,15.15,11.01,19.08h0l.31,.21,.06,.04,126.71,60.25c3.35,1.89,7.09,2.83,10.83,2.83s7.48-.94,10.83-2.83l126.71-60.25h0s.41-.21,.41-.21h.03c6.79-3.94,11.04-11.26,11.04-19.12v-50.34h0c-.04-1.88-.75-3.34-1.81-4.31Z"/><path class="h" d="M1004.9,514.49c.45,1.6-.49,3.25-2.08,3.7-1.6,.45-3.25-.49-3.7-2.08l-7.34-26.3c-27.71,58.49-70.53,105.17-121.64,137.44-52.52,33.15-113.79,51.11-176.45,51.11-45.62,0-91.97-9.52-136.2-29.62-60.76-27.61-109.11-71.37-142.26-123.89-33.15-52.52-51.11-113.79-51.11-176.45,0-33.23,5.05-66.85,15.56-99.76,.5-1.58,2.19-2.45,3.77-1.94,1.58,.5,2.45,2.19,1.94,3.77-10.32,32.31-15.28,65.31-15.28,97.93,0,61.52,17.63,121.69,50.18,173.25,32.55,51.56,80,94.51,139.67,121.63,43.44,19.74,88.93,29.08,133.72,29.08,61.52,0,121.69-17.63,173.25-50.18,50.03-31.58,91.95-77.2,119.17-134.39l-24.91,6.95h0c-1.6,.45-3.25-.49-3.7-2.08-.45-1.6,.49-3.25,2.08-3.7l32.54-9.08c1.6-.45,3.25,.49,3.7,2.08l9.08,32.54Zm18.75-165.71c0-62.67-17.96-123.94-51.11-176.45-33.15-52.52-81.5-96.28-142.26-123.89-44.23-20.1-90.58-29.62-136.2-29.62-62.09,0-122.81,17.63-175,50.19-51.75,32.29-95.1,79.28-123.07,138.3l-7.43-27.52c-.43-1.6-2.08-2.55-3.68-2.11-1.6,.43-2.55,2.08-2.11,3.68l8.95,33.17c.21,.76,.72,1.43,1.4,1.82,.68,.39,1.51,.5,2.28,.3l33.17-8.95c1.6-.43,2.55-2.08,2.11-3.68-.43-1.6-2.08-2.55-3.68-2.11h0s-24.99,6.75-24.99,6.75c27.49-57.38,69.79-103.06,120.23-134.53,51.24-31.97,110.87-49.28,171.82-49.28,44.78,0,90.28,9.34,133.72,29.08,59.67,27.12,107.12,70.07,139.67,121.63,32.55,51.56,50.18,111.73,50.18,173.25,0,30.84-4.43,62.01-13.63,92.62-.48,1.59,.42,3.26,2.01,3.74,1.59,.48,3.26-.42,3.74-2.01h0c9.37-31.18,13.89-62.94,13.89-94.35Z"/></svg>