<?xml version="1.0" encoding="UTF-8"?><svg id="a" xmlns="http://www.w3.org/2000/svg" viewBox="0 0 147 110"><defs><style>.b{fill:#5ac8f5;}.c{fill:#323c46;}</style></defs><g><path class="b" d="M104.77,21.8c.13,.15,.27,.28,.41,.43-.13-.15-.27-.29-.41-.43Z"/><path class="b" d="M101.94,18.99s.05,.05,.08,.07c-.03-.02-.05-.05-.08-.07Z"/><path class="b" d="M108.99,78.68c5.04-7.34,7.99-16.23,7.99-25.8s-2.95-18.45-7.98-25.79c11.26,17.96,9.81,35.06,0,51.6Z"/><path class="b" d="M99.27,16.77c.43,.33,.85,.67,1.27,1.01-.41-.35-.84-.68-1.27-1.01Z"/><path class="b" d="M92.53,12.42c2.29,1.24,4.49,2.63,6.57,4.21-2.06-1.58-4.25-2.99-6.57-4.21Z"/><path class="b" d="M107.19,77.28l-7.54-6.46,1.44-5.38-5.03-9.69-.08-7.26-4.23-2.44-5.38,3.59-11.85-5.52v-11.15l3.31-3.66,8.8-.67,11.58,2.62,10.75-4.24c-1.15-1.67-2.4-3.26-3.76-4.76l-7.71,4.76-12.56-3.95-5.74,2.15-4.67-2.51,3.04-7.92,8.45,2.53,6.24-5.06c-6.28-3.25-13.4-5.09-20.95-5.09-6.26,0-12.22,1.26-17.65,3.54l2.93,4.1,11.13,2.87v5.26h-5.54l-3.79,8.02-7.54,4.31h-9.84l.15,5.38,2.87,2.51-.72,4.67,5.38-1.44,2.51,3.95h10.15l3.85,6.82h6.46l-2.87,8.61-4.67,4.31v4.67l-4.67,3.59-1.08,7.9-6.46-2.15-1.44-5.74,1.08-15.08-8.61-1.44-3.87-9.15,3.02-4.21-7.05-4.95-4.86-10.6c-2.92,6.02-4.57,12.78-4.57,19.93,0,25.23,20.45,45.69,45.69,45.69,15.64,0,29.44-7.86,37.67-19.84l-1.78-1.43Z"/><path class="b" d="M53.62,10.73c-10.23,4.3-18.56,12.21-23.41,22.14,5.11-9.88,12.79-17.37,23.41-22.14Z"/></g><path class="c" d="M104.86,19.36c-3.44-3.45-7.42-6.37-11.79-8.63,0,0,0,0,0,0-6.5-3.37-13.88-5.28-21.71-5.29h-.08c-13.08,0-24.93,5.3-33.51,13.86-8.58,8.56-13.9,20.41-13.92,33.49h0s0,.08,0,.08c0,13.08,5.3,24.93,13.86,33.51,8.56,8.58,20.41,13.9,33.49,13.92h.08c5.37,0,10.55-.9,15.37-2.55l-2.23,4.23c-.45,.85-.12,1.91,.73,2.36s1.91,.12,2.36-.73l4.41-8.36c.21-.41,.26-.89,.12-1.33-.14-.44-.45-.82-.86-1.03l-8.36-4.41c-.85-.45-1.91-.12-2.36,.73-.45,.85-.12,1.91,.73,2.36h0s4.98,2.62,4.98,2.62c-4.65,1.68-9.66,2.59-14.89,2.59h-.08s0,0,0,0c-12.13-.02-23.08-4.94-31.02-12.9-7.94-7.96-12.84-18.92-12.84-31.04v-.07s0,0,0,0c0-5.48,1.02-10.73,2.87-15.56l3.23,7.03c.13,.28,.34,.53,.59,.7l5.6,3.93-1.99,2.77c-.36,.49-.43,1.14-.19,1.7l3.87,9.15c.23,.55,.74,.95,1.32,1.04l7.04,1.17-.96,13.49c-.01,.18,0,.37,.05,.55l1.44,5.74c.14,.58,.58,1.05,1.14,1.24l6.46,2.15c.49,.16,1.04,.1,1.48-.17,.44-.27,.74-.74,.81-1.25l.98-7.18,4.1-3.15c.43-.33,.68-.84,.68-1.39v-3.9l4.1-3.79c.22-.2,.38-.45,.47-.73l2.87-8.61c.18-.53,.09-1.12-.24-1.58-.33-.46-.86-.73-1.42-.73h-5.44l-3.35-5.93c-.31-.55-.89-.89-1.52-.89h-9.19l-2-3.14c-.41-.64-1.19-.95-1.93-.75l-2.8,.75,.31-2.02c.09-.59-.13-1.19-.58-1.58l-2.3-2.01-.08-2.82h8.04c.31,0,.6-.08,.87-.23l7.54-4.31c.31-.18,.56-.45,.71-.77l3.32-7.02h4.43c.46,0,.91-.19,1.24-.51s.51-.78,.51-1.24v-5.26c0-.8-.54-1.5-1.31-1.69l-10.51-2.71-1.25-1.76c4.66-1.68,9.68-2.6,14.91-2.6h.07c6.28,.01,12.24,1.34,17.64,3.72l-3.38,2.74-7.56-2.27c-.88-.26-1.81,.2-2.14,1.05l-3.04,7.92c-.32,.82,.03,1.75,.8,2.17l4.67,2.51c.45,.24,.97,.28,1.44,.1l5.18-1.94,11.99,3.77c.48,.15,1.01,.09,1.44-.18l6.45-3.98c.47,.55,.92,1.12,1.36,1.69l-8.15,3.21-11.06-2.5c-.18-.04-.34-.05-.52-.04l-8.8,.67c-.45,.03-.86,.24-1.16,.57l-3.31,3.66c-.29,.32-.45,.74-.45,1.17v11.15c0,.68,.39,1.3,1.01,1.59l11.85,5.52c.56,.26,1.2,.21,1.71-.13l4.47-2.99,2.43,1.4,.07,6.26c0,.28,.07,.54,.2,.79l4.71,9.09-1.26,4.73c-.17,.65,.04,1.34,.55,1.78l7.54,6.46,.04,.03,.49,.4c-1.97,2.65-4.22,5.07-6.72,7.21-.73,.63-.82,1.73-.19,2.47,.63,.73,1.73,.82,2.47,.19,10.13-8.68,16.57-21.57,16.59-35.96h0s0-.08,0-.08c0-13.08-5.3-24.93-13.86-33.51Zm-56.97,29.07l1.82,2.87c.32,.5,.88,.81,1.48,.81h9.12l3.35,5.93c.31,.55,.89,.89,1.52,.89h4.03l-1.96,5.88-4.34,4c-.36,.33-.56,.8-.56,1.29v3.8l-3.98,3.06c-.37,.28-.6,.69-.67,1.15l-.79,5.81-3.55-1.18-1.14-4.54,1.06-14.8c.06-.9-.57-1.7-1.46-1.85l-7.67-1.28-3.11-7.36,2.39-3.33c.1,0,.19-.02,.29-.05l4.15-1.11Zm7.26-32.59c.24,.34,.59,.57,.99,.68l9.81,2.53v2.15h-3.79c-.68,0-1.29,.39-1.58,1l-3.56,7.52-6.66,3.8h-9.38c-.47,0-.92,.19-1.25,.53-.33,.34-.51,.79-.49,1.27l.15,5.38c.01,.49,.23,.95,.6,1.27l2.15,1.88-.35,2.27-5.36-3.76-4.32-9.41c2.11-4.15,4.87-7.93,8.14-11.19,3.68-3.67,8.01-6.7,12.8-8.88l2.1,2.95Zm42.11,9.28l-11.8-3.71c-.37-.12-.77-.11-1.14,.03l-5,1.87-2.61-1.41,1.9-4.96,6.9,2.07c.55,.17,1.16,.05,1.6-.32l5.34-4.33c3.66,2.02,7,4.54,9.93,7.47,.02,.02,.05,.05,.07,.07l-5.2,3.21Zm17.97,27.83h0c-.01,8.52-2.46,16.47-6.67,23.2l-.26-.21-6.68-5.73,1.15-4.32c.11-.42,.06-.87-.14-1.26l-4.83-9.32-.08-6.84c0-.62-.34-1.19-.88-1.5l-4.23-2.44c-.58-.33-1.29-.31-1.85,.06l-4.56,3.05-9.94-4.63v-9.36l2.39-2.64,7.84-.6,11.32,2.56c.34,.08,.7,.05,1.03-.08l9.44-3.72c4.39,6.84,6.93,14.97,6.93,23.7v.08Z"/></svg>