<?xml version="1.0" encoding="UTF-8"?><svg xmlns="http://www.w3.org/2000/svg" viewBox="0 0 147 110"><defs><style>.a{fill:#5ac8f5;}.b{fill:#323c46;}</style></defs><path class="a" d="M52.19,57.1c0,.97-.78,1.75-1.75,1.75h-11.38c-.97,0-1.75-.78-1.75-1.75s.78-1.75,1.75-1.75h11.38c.97,0,1.75,.78,1.75,1.75Zm-1.75,5.57h-11.5c-.97,0-1.75,.78-1.75,1.75s.78,1.75,1.75,1.75h11.5c.97,0,1.75-.78,1.75-1.75s-.78-1.75-1.75-1.75Zm-11.38-11.19h4.04c.97,0,1.75-.78,1.75-1.75s-.78-1.75-1.75-1.75h-4.04c-.97,0-1.75,.78-1.75,1.75s.78,1.75,1.75,1.75ZM125.8,30.13c5.92-2.76,8.48-9.8,5.72-15.72-2.76-5.92-9.8-8.48-15.72-5.72-5.92,2.76-8.48,9.8-5.72,15.72,2.76,5.92,9.8,8.48,15.72,5.72Zm-46.65,10.63l20.81-9.7-.86,2.36c-.33,.91,.14,1.91,1.05,2.24,.91,.33,1.91-.14,2.24-1.05l2.3-6.33c.16-.43,.14-.92-.06-1.34-.19-.42-.55-.75-.99-.9l-6.33-2.3c-.91-.33-1.91,.14-2.24,1.05-.33,.91,.14,1.91,1.05,2.24h0s2.36,.86,2.36,.86l-20.81,9.7c-.88,.41-1.25,1.45-.85,2.33,.41,.88,1.45,1.25,2.33,.85Zm47.09,39.11c-5.92-2.76-12.96-.2-15.72,5.72-2.76,5.92-.2,12.96,5.72,15.72,5.92,2.76,12.96,.2,15.72-5.72,2.76-5.92,.2-12.96-5.72-15.72Zm-23.42-4.49c-.33-.91-1.33-1.38-2.24-1.05-.91,.33-1.38,1.33-1.05,2.24h0s.86,2.36,.86,2.36l-20.81-9.7c-.88-.41-1.92-.03-2.33,.85-.41,.88-.03,1.92,.85,2.33l20.81,9.7-2.36,.86c-.91,.33-1.38,1.33-1.05,2.24,.33,.91,1.33,1.38,2.24,1.05l6.33-2.3c.43-.16,.79-.49,.99-.9,.19-.42,.22-.91,.06-1.34l-2.3-6.33Z"/><path class="b" d="M48.7,45.97c.62,.62,1.48,1.01,2.43,1.01h6.69c.46,.01,.92-.16,1.27-.51,.69-.68,.69-1.79,0-2.47l-8.89-8.93h-16.83c-.94,0-1.81,.39-2.43,1.01-.62,.62-1.01,1.48-1.01,2.43v32.36c0,.94,.39,1.81,1.01,2.43,.62,.62,1.48,1.01,2.43,1.01h22.79c.94,0,1.81-.39,2.43-1.01,.62-.62,1.01-1.48,1.01-2.43v-19.41c0-.97-.78-1.75-1.75-1.75s-1.75,.78-1.75,1.75h0v19.34h-22.66V38.57h14.25v4.98c0,.94,.39,1.81,1.01,2.43Zm2.49-4.95l2.44,2.45h-2.44v-2.45Zm-6.29-17.58c-9.03,0-17.22,3.67-23.14,9.58-5.92,5.92-9.59,14.11-9.58,23.14,0,9.03,3.67,17.22,9.58,23.14,5.92,5.92,14.11,9.59,23.14,9.58,9.03,0,17.22-3.67,23.14-9.58,5.92-5.92,9.59-14.11,9.58-23.14,0-9.03-3.67-17.22-9.58-23.14-5.92-5.92-14.11-9.59-23.14-9.58Zm20.67,53.39c-5.29,5.29-12.59,8.56-20.67,8.56-8.08,0-15.37-3.27-20.67-8.56-5.29-5.29-8.56-12.59-8.56-20.67,0-8.08,3.27-15.37,8.56-20.67,5.29-5.29,12.59-8.56,20.67-8.56,8.08,0,15.37,3.27,20.67,8.56,5.29,5.29,8.56,12.59,8.56,20.67,0,8.08-3.27,15.37-8.56,20.67ZM108.5,25.15c1.15,2.46,2.95,4.43,5.1,5.77,2.15,1.34,4.65,2.07,7.21,2.07,1.92,0,3.88-.41,5.73-1.27,2.46-1.15,4.43-2.95,5.77-5.1,1.34-2.15,2.07-4.65,2.07-7.21,0-1.92-.41-3.88-1.27-5.73-1.15-2.46-2.95-4.43-5.1-5.77-2.15-1.34-4.65-2.07-7.21-2.07-1.92,0-3.88,.41-5.73,1.27-2.46,1.15-4.43,2.95-5.77,5.1-1.34,2.15-2.07,4.65-2.07,7.21,0,1.92,.41,3.88,1.27,5.73h0Zm2.22-5.73c0-1.9,.54-3.76,1.54-5.35,1-1.6,2.45-2.93,4.28-3.79,1.38-.64,2.83-.95,4.25-.95,1.9,0,3.76,.54,5.35,1.54,1.6,1,2.93,2.45,3.79,4.28,.64,1.38,.95,2.83,.95,4.25,0,1.9-.54,3.76-1.54,5.35-1,1.6-2.45,2.93-4.28,3.79-1.38,.64-2.83,.95-4.25,.95-1.9,0-3.76-.54-5.35-1.54-1.6-1-2.93-2.45-3.79-4.28h0c-.64-1.38-.95-2.83-.95-4.25Zm22.03,63.97c-1.34-2.15-3.31-3.96-5.77-5.1-1.85-.86-3.81-1.28-5.73-1.27-2.56,0-5.06,.73-7.21,2.07-2.15,1.34-3.96,3.31-5.1,5.77h0c-.86,1.85-1.28,3.81-1.27,5.73,0,2.56,.73,5.06,2.07,7.21,1.34,2.15,3.31,3.96,5.77,5.1,1.85,.86,3.81,1.28,5.73,1.27,2.56,0,5.06-.73,7.21-2.07,2.15-1.34,3.96-3.31,5.1-5.77,.86-1.85,1.28-3.81,1.27-5.73,0-2.56-.73-5.06-2.07-7.21Zm-2.38,11.46c-.86,1.84-2.19,3.29-3.79,4.28-1.6,1-3.46,1.54-5.35,1.54-1.43,0-2.87-.3-4.25-.95-1.84-.86-3.29-2.19-4.28-3.79-1-1.6-1.54-3.46-1.54-5.35,0-1.43,.3-2.87,.95-4.25h0c.86-1.84,2.19-3.29,3.79-4.28,1.6-1,3.46-1.54,5.35-1.54,1.43,0,2.87,.3,4.25,.95,1.84,.86,3.29,2.19,4.28,3.79,1,1.6,1.54,3.46,1.54,5.35,0,1.43-.3,2.87-.95,4.25Z"/></svg>