<?xml version="1.0" encoding="UTF-8"?><svg xmlns="http://www.w3.org/2000/svg" viewBox="0 0 147 110"><defs><style>.a{fill:#5ac8f5;fill-rule:evenodd;}.b{fill:#323c46;}</style></defs><path class="a" d="M139.95,22.48v5.95H6.95v-5.95c0-2.74,2.22-4.96,4.96-4.96h123.08c2.74,0,4.96,2.22,4.96,4.96Zm-47.02,40.62c-.39,2.64,1.17,3.95,3.33,6.57l-3.23,5.39c-3.29-.66-5.22-1.43-7.37,.16-2.15,1.6-1.97,3.67-2.3,7.02l-6.08,1.53c-1.87-2.82-2.67-4.72-5.29-5.1-2.66-.39-3.99,1.21-6.59,3.35l-5.37-3.22c.67-3.32,1.45-5.24-.13-7.38h0c-1.59-2.15-3.67-1.96-7-2.28l-1.51-6.09c2.76-1.84,4.71-2.67,5.11-5.34,.39-2.64-1.2-3.98-3.33-6.57l3.23-5.39c3.3,.66,5.22,1.43,7.37-.16,2.15-1.6,1.97-3.67,2.3-7.02l6.08-1.53c1.87,2.81,2.67,4.72,5.31,5.1h0c2.63,.39,3.97-1.21,6.57-3.36l5.37,3.22c-.67,3.32-1.45,5.23,.13,7.37h0c1.59,2.15,3.67,1.97,7,2.28l1.51,6.09c-2.81,1.88-4.72,2.69-5.11,5.33h0Zm-12.13-2.68c0-3.37-2.73-6.09-6.09-6.09s-6.09,2.73-6.09,6.09,2.73,6.09,6.09,6.09,6.09-2.73,6.09-6.09Z"/><path class="b" d="M94.67,63.36c.07-.47,.19-.78,.35-1.06,.12-.21,.28-.41,.49-.62,.32-.32,.77-.66,1.37-1.06,.59-.4,1.32-.85,2.14-1.4,.62-.41,.9-1.16,.73-1.88l-1.51-6.09c-.18-.72-.79-1.25-1.53-1.32-.87-.08-1.63-.13-2.29-.19-.49-.04-.93-.09-1.29-.16-.56-.1-.95-.23-1.27-.4-.32-.18-.59-.4-.9-.82,0,0,0,0,0-.01-.24-.33-.38-.6-.46-.87-.08-.27-.12-.54-.12-.88,0-.45,.08-1.02,.22-1.72,.14-.7,.34-1.54,.54-2.51,.15-.73-.18-1.47-.81-1.85l-5.37-3.22c-.63-.38-1.44-.32-2.01,.15-1.21,1-2.12,1.84-2.85,2.34-.36,.25-.67,.42-.96,.52-.29,.1-.55,.15-.89,.16-.15,0-.32-.01-.51-.04,0,0,0,0-.01,0-.46-.07-.77-.19-1.04-.34-.21-.12-.4-.27-.61-.48-.31-.31-.66-.77-1.05-1.37-.4-.59-.84-1.32-1.39-2.14-.41-.62-1.17-.91-1.89-.73l-6.08,1.53c-.72,.18-1.24,.79-1.31,1.53-.09,.87-.14,1.64-.2,2.3-.04,.49-.1,.93-.16,1.3-.1,.56-.23,.95-.41,1.27-.18,.32-.4,.59-.83,.92-.33,.25-.61,.38-.88,.47-.27,.09-.55,.13-.89,.13-.45,0-1.01-.08-1.71-.22-.7-.14-1.53-.34-2.49-.53-.73-.15-1.46,.18-1.84,.82l-3.23,5.39c-.38,.63-.32,1.44,.15,2.01,1,1.21,1.83,2.11,2.32,2.84,.25,.36,.41,.67,.52,.96,.1,.29,.15,.55,.16,.89,0,.15-.01,.32-.04,.52-.07,.47-.19,.79-.36,1.07-.13,.21-.28,.41-.5,.63-.32,.32-.78,.67-1.38,1.06-.59,.4-1.31,.84-2.12,1.38-.62,.41-.91,1.16-.73,1.88l1.51,6.09c.18,.72,.79,1.25,1.53,1.32,.87,.08,1.63,.13,2.29,.19,.49,.04,.92,.09,1.29,.16,.55,.1,.95,.23,1.27,.4,.32,.18,.59,.4,.91,.83,0,0,0,0,0,0,.24,.33,.37,.6,.46,.86,.08,.27,.12,.54,.12,.88,0,.45-.08,1.02-.22,1.72-.14,.7-.34,1.54-.54,2.52-.15,.73,.18,1.47,.82,1.85l5.37,3.22c.63,.38,1.44,.32,2.01-.15,1.21-1,2.12-1.84,2.85-2.34,.36-.25,.67-.42,.96-.52,.29-.1,.55-.15,.9-.16,.16,0,.33,.01,.52,.04,.47,.07,.77,.19,1.04,.34,.2,.12,.4,.27,.61,.48,.31,.31,.66,.77,1.05,1.37,.4,.59,.84,1.32,1.39,2.15,.41,.62,1.16,.91,1.89,.73l6.08-1.53c.72-.18,1.24-.79,1.31-1.53,.09-.87,.14-1.64,.2-2.3,.04-.49,.1-.93,.16-1.3,.1-.56,.23-.95,.41-1.27,.18-.32,.41-.6,.84-.92,.33-.25,.61-.38,.88-.47,.27-.09,.55-.13,.89-.13,.45,0,1.01,.08,1.71,.22,.7,.14,1.53,.34,2.49,.53,.73,.15,1.47-.18,1.85-.82l3.23-5.39c.38-.63,.32-1.44-.15-2.01-1-1.22-1.84-2.13-2.33-2.85-.25-.36-.41-.67-.51-.95-.1-.28-.15-.54-.15-.88,0-.15,.01-.32,.04-.52,0,0,0,0,0,0Zm-6.19,9.18c-.64,0-1.3,.08-1.96,.29-.66,.21-1.3,.54-1.9,.99-.69,.51-1.26,1.12-1.67,1.79-.31,.5-.53,1.03-.69,1.55-.24,.79-.34,1.57-.42,2.38-.04,.43-.08,.87-.11,1.32l-3.66,.92c-.19-.3-.38-.6-.57-.89-.3-.45-.59-.89-.92-1.31-.49-.63-1.06-1.22-1.79-1.7-.73-.48-1.59-.8-2.55-.93-.35-.05-.69-.08-1.03-.08-.74,0-1.45,.13-2.09,.37-.48,.18-.93,.4-1.34,.66-.62,.38-1.18,.83-1.74,1.29-.27,.23-.54,.46-.82,.7l-3.22-1.93c.1-.45,.2-.89,.28-1.32,.16-.8,.29-1.58,.29-2.41,0-.63-.08-1.29-.29-1.94-.21-.65-.54-1.29-.98-1.89,0,0,0,0-.01-.01-.51-.69-1.11-1.25-1.77-1.66-.5-.31-1.03-.53-1.55-.69-.79-.24-1.57-.34-2.37-.42-.43-.04-.86-.07-1.3-.11l-.91-3.66c.29-.19,.58-.37,.87-.56,.9-.59,1.76-1.19,2.51-2.05,.37-.42,.7-.91,.95-1.46,.25-.55,.43-1.15,.53-1.8h0c.05-.35,.08-.7,.08-1.03,0-.74-.13-1.45-.37-2.09-.17-.48-.4-.92-.65-1.33-.38-.62-.82-1.17-1.29-1.73-.22-.27-.45-.54-.69-.81l1.95-3.25c.44,.1,.87,.19,1.3,.28,.79,.16,1.57,.28,2.4,.28,.64,0,1.3-.08,1.96-.29,.66-.21,1.3-.54,1.9-.99h0c.69-.51,1.26-1.12,1.67-1.79,.31-.5,.53-1.03,.69-1.55,.24-.79,.34-1.57,.42-2.38,.04-.43,.08-.87,.11-1.32l3.66-.92c.19,.3,.38,.6,.57,.88,.3,.45,.6,.89,.92,1.31,.49,.63,1.06,1.22,1.8,1.7,.73,.48,1.6,.8,2.55,.94,0,0,.02,0,.02,0,.34,.05,.67,.07,1,.07,.74,0,1.45-.13,2.09-.37,.48-.18,.92-.4,1.33-.66,.62-.38,1.17-.83,1.74-1.29,.27-.23,.54-.46,.82-.7l3.22,1.93c-.1,.45-.2,.89-.28,1.32-.16,.8-.29,1.58-.29,2.41,0,.63,.08,1.29,.29,1.95,.21,.65,.53,1.28,.97,1.87,0,0,0,.02,.01,.02,.51,.69,1.12,1.26,1.79,1.67,.5,.31,1.03,.53,1.55,.68,.79,.23,1.57,.34,2.37,.42,.42,.04,.86,.07,1.3,.11l.91,3.66c-.31,.2-.6,.39-.89,.58-.45,.3-.89,.6-1.31,.93-.63,.49-1.22,1.07-1.7,1.8-.47,.72-.8,1.59-.94,2.53,0,0,0,.01,0,.02-.05,.35-.08,.7-.08,1.04,0,.73,.13,1.44,.36,2.07,.17,.48,.4,.92,.65,1.33,.38,.62,.82,1.17,1.28,1.73,.23,.27,.46,.55,.7,.83l-1.95,3.25c-.44-.1-.87-.19-1.29-.28-.79-.16-1.57-.28-2.4-.28Zm-13.76-19.96c-2.16,0-4.13,.88-5.55,2.3-1.42,1.41-2.3,3.39-2.3,5.55,0,2.16,.88,4.13,2.3,5.55,1.41,1.42,3.39,2.3,5.55,2.3,2.16,0,4.13-.88,5.55-2.3,1.42-1.41,2.3-3.39,2.3-5.55,0-2.16-.88-4.13-2.3-5.55-1.41-1.42-3.39-2.3-5.55-2.3Zm3.07,10.92c-.79,.79-1.87,1.27-3.07,1.27-1.21,0-2.28-.48-3.07-1.27-.79-.79-1.27-1.87-1.27-3.07,0-1.21,.48-2.28,1.27-3.07,.79-.79,1.87-1.27,3.07-1.27,1.21,0,2.28,.48,3.07,1.27,.79,.79,1.27,1.87,1.27,3.07,0,1.21-.48,2.28-1.27,3.07Zm62.26-28.34c-.97,0-1.75,.78-1.75,1.75h0v42.54s-.01,7.95-.01,7.95h0c0,.91-.36,1.71-.95,2.3-.59,.59-1.39,.95-2.3,.95H11.95c-.9,0-1.7-.36-2.3-.95-.59-.59-.95-1.39-.95-2.3V29.61H140.04c.97,0,1.75-.78,1.75-1.75,0-.02,0-.04,0-.06,0-.02,0-.04,0-.06v-5.14c0-1.86-.76-3.56-1.98-4.77-1.22-1.22-2.91-1.98-4.77-1.98H11.95c-1.86,0-3.56,.76-4.77,1.98-1.22,1.22-1.98,2.91-1.98,4.77V87.39c0,1.86,.76,3.56,1.98,4.77,1.22,1.22,2.91,1.98,4.77,1.98h123.08c1.86,0,3.56-.76,4.77-1.98,1.22-1.22,1.98-2.91,1.98-4.77h0s.01-7.95,.01-7.95v-.45s0,0,0,0V36.9c0-.97-.78-1.75-1.75-1.75ZM9.66,20.31c.59-.59,1.39-.95,2.3-.95h123.09c.9,0,1.7,.36,2.3,.95,.59,.59,.95,1.39,.95,2.3v3.5H8.7v-3.5c0-.9,.36-1.7,.95-2.3Z"/></svg>