<svg xmlns="http://www.w3.org/2000/svg" width="147" height="110">
  <path d="M63.474 52.613v8.847a1.729 1.729 0 1 1-3.457 0v-8.847l-1.753 1.728a1.729 1.729 0 0 1-2.444-2.444l4.702-4.705a1.729 1.729 0 0 1 2.444 0l4.705 4.73a1.729 1.729 0 0 1-2.444 2.444l-1.753-1.753zm15.855 2.921a1.729 1.729 0 0 0 0 2.444l4.702 4.706c.675.674 1.769.674 2.444 0l4.705-4.706a1.729 1.729 0 1 0-2.444-2.444l-1.753 1.753V48.43a1.729 1.729 0 1 0-3.457 0v8.847l-1.753-1.753a1.729 1.729 0 0 0-2.444 0zm19.046-33.628H65.877c-1.134 0-2.057 1.355-2.057 3.028v15.558c0 1.67.923 1.296 2.057 1.296h32.498c1.137 0 2.057-1.355 2.057-3.025V24.934c0-1.683-.92-3.038-2.057-3.038zm0 46.326H65.877c-1.134 0-2.057-.373-2.057 1.3V85.09c0 1.67.923 3.025 2.057 3.025h32.498c1.137 0 2.057-1.355 2.057-3.025V71.26c0-1.683-.92-3.038-2.057-3.038z" fill="#5AC8F5"/>
  <path d="M84.01 31.839a4.149 4.149 0 1 1 8.297 0 4.149 4.149 0 0 1-8.297 0zm4.149 42.177a4.149 4.149 0 1 0 2.934 1.213 4.149 4.149 0 0 0-2.934-1.216z" fill="#FFF"/>
  <path d="M108.034 20.46C91.558 3.987 65.738 1.444 46.365 14.389c-19.373 12.946-26.904 37.773-17.987 59.3 8.916 21.525 31.797 33.756 54.65 29.21 22.852-4.545 39.311-24.6 39.312-47.9a48.708 48.708 0 0 0-14.306-34.537zm-2.444 66.628c-15.31 15.307-39.3 17.669-57.3 5.64-18-12.027-24.996-35.096-16.711-55.097 8.285-20 29.545-31.363 50.778-27.14 21.233 4.224 36.526 22.858 36.526 44.507a45.23 45.23 0 0 1-13.293 32.093zm-11.554-55.25a5.877 5.877 0 1 0-11.755 0 5.877 5.877 0 0 0 11.755 0zm-8.298 0a2.42 2.42 0 1 1 4.84 0 2.42 2.42 0 0 1-4.84 0zm-28.642-2.924v5.846a1.729 1.729 0 1 1-3.458 0v-5.846a1.729 1.729 0 1 1 3.458 0zm43.674-7.354a4.733 4.733 0 0 1 1.383 3.364v13.829a4.75 4.75 0 0 1-4.753 4.754H49.593a4.757 4.757 0 0 1-4.757-4.754V24.924a4.757 4.757 0 0 1 4.757-4.757h5.753a1.729 1.729 0 1 1 0 3.457h-5.753a1.3 1.3 0 0 0-1.3 1.3v13.829c-.002.344.135.675.38.916.244.245.575.382.92.38h47.814a1.3 1.3 0 0 0 1.296-1.296V24.924a1.3 1.3 0 0 0-1.296-1.3H66.879a1.3 1.3 0 0 0-1.3 1.3v9.68a1.729 1.729 0 1 1-3.457 0v-9.68a4.757 4.757 0 0 1 4.757-4.757h30.528c1.261 0 2.47.502 3.363 1.393zm-6.734 56.605a5.877 5.877 0 1 0-11.755 0 5.877 5.877 0 0 0 11.755 0zm-8.298 0a2.42 2.42 0 1 1 4.84 0 2.42 2.42 0 0 1-4.84 0zM57.096 75.24v5.846a1.729 1.729 0 1 1-3.458 0V75.24a1.729 1.729 0 1 1 3.458 0zm43.688-7.353a4.733 4.733 0 0 1 1.383 3.364v13.828a4.75 4.75 0 0 1-4.754 4.754H66.886a4.757 4.757 0 0 1-4.757-4.754V75.4a1.729 1.729 0 1 1 3.457 0v9.68c-.002.345.135.675.38.916.244.246.575.383.92.38h30.527a1.3 1.3 0 0 0 1.297-1.296V71.251a1.3 1.3 0 0 0-1.297-1.3h-47.82a1.3 1.3 0 0 0-1.3 1.3v13.828c-.002.345.135.675.38.916.244.246.575.383.92.38h5.753a1.729 1.729 0 1 1 0 3.458h-5.753a4.757 4.757 0 0 1-4.757-4.754V71.251a4.757 4.757 0 0 1 4.757-4.758h47.814c1.261.001 2.47.502 3.363 1.394z" fill="#393F45"/>
</svg>
