<svg xmlns="http://www.w3.org/2000/svg" width="147" height="110">
  <path d="M113.666 16.485v68.21a10.465 10.465 0 0 1-10.469 10.469H90.862a1.65 1.65 0 1 1 0-3.295h12.335a7.177 7.177 0 0 0 7.17-7.173V18.134H43.804a7.163 7.163 0 0 0-7.157 7.167v12.757a1.65 1.65 0 0 1-3.298 0V25.301c.002-5.775 4.68-10.457 10.455-10.465h68.21a1.646 1.646 0 0 1 1.65 1.65h.003zM34.983 51.347v35.309a6.863 6.863 0 0 0 6.85 6.862h35.321a6.863 6.863 0 0 0 6.856-6.862V44.478H41.832a6.86 6.86 0 0 0-6.849 6.87z" fill="#5AC8F5"/>
  <path d="M104.916 25.584c0-.954-.774-1.728-1.73-1.728h-8.365a1.729 1.729 0 0 0 0 3.457h4.072L83.367 42.839H41.832a8.505 8.505 0 0 0-8.508 8.508v35.309a8.505 8.505 0 0 0 8.508 8.508h35.322a8.505 8.505 0 0 0 8.508-8.508V45.432l15.796-15.796v4.308a1.729 1.729 0 0 0 3.458 0v-8.36zm-24.08 64.757c-.975.98-2.3 1.53-3.682 1.528H41.832a5.21 5.21 0 0 1-5.186-5.213V51.347a5.207 5.207 0 0 1 5.186-5.21h40.4c.04.055.08.107.125.156v40.363a5.186 5.186 0 0 1-1.52 3.685z" fill="#323C46"/>
</svg>
