<?xml version="1.0" encoding="UTF-8"?><svg xmlns="http://www.w3.org/2000/svg" viewBox="0 0 147 110"><defs><style>.a{fill:#393f45;}.b{fill:#5ac8f5;fill-rule:evenodd;}</style></defs><path class="b" d="M75.59,53.9c-.3,2.56-1.54,4.83-3.36,6.46-1.82,1.63-4.23,2.63-6.87,2.63-2.63,0-5.05-1-6.87-2.63-1.82-1.63-3.06-3.9-3.36-6.46h0c-.11-.96,.57-1.83,1.53-1.94,.96-.11,1.83,.57,1.94,1.53,.2,1.69,1.01,3.18,2.22,4.26,1.21,1.08,2.78,1.73,4.53,1.73,1.75,0,3.32-.65,4.53-1.73,1.2-1.08,2.02-2.58,2.22-4.26,.11-.96,.98-1.65,1.94-1.53,.96,.11,1.65,.98,1.53,1.94Zm1.11-43.15l1.95-1.46s-4.55-1.41-6.37-.62l1.42-2.91s-9.18,.02-14.34,4.16l.18-2.08s-18.2,2.79-14.34,31.83l2.29,.42s.71-11.83,2.85-14.78,4.35-2.6,5.31-2.69,9.59,3.2,19.99,.63c0,0,4.1-.51,5.84,3.6,0,0,1.92,5.86,2.5,12.41h1.41s1.5-11.48,.89-18.31c-.62-6.83-9.56-10.19-9.56-10.19Zm40.42,87.49l-2.83,2.9c-1.98-.92-3.06-1.69-4.64-1.02-1.59,.68-1.79,2.01-2.49,4.07l-4.05,.04c-.75-2.05-.97-3.37-2.57-4.02h0c-1.6-.65-2.68,.16-4.63,1.11l-2.89-2.84c.9-1.95,1.69-3.06,1.01-4.67-.68-1.59-2.01-1.79-4.06-2.49l-.04-4.06c2.04-.75,3.36-.98,4-2.58,.64-1.61-.16-2.69-1.11-4.64l2.83-2.9c1.98,.92,3.07,1.69,4.65,1.01h0c1.58-.68,1.78-2.01,2.48-4.07l4.05-.04c.75,2.05,.97,3.37,2.57,4.01h0c1.6,.65,2.68-.16,4.63-1.11l2.89,2.84c-.91,1.98-1.69,3.08-1.01,4.66h0c.68,1.59,1.98,1.78,4.05,2.5l.04,4.06c-2.04,.75-3.36,.98-4,2.58-.64,1.61,.16,2.69,1.11,4.64Zm-8.13-11.56c-1.36-2.22-4.27-2.91-6.48-1.55-2.22,1.36-2.91,4.27-1.55,6.48,1.36,2.22,4.27,2.91,6.48,1.55,2.22-1.36,2.91-4.27,1.55-6.48Z"/><path class="a" d="M86.29,98.55h0s-57.54,0-57.54,0v-9.21s0-.11,0-.11c0-.49,.14-.93,.49-1.45,.61-.91,1.99-1.96,3.93-2.88,2.9-1.39,6.97-2.54,11.23-3.41,3.78-.77,7.72-1.34,11.19-1.75,.08,1.17,.5,2.25,1.13,3.12,.99,1.36,2.41,2.28,3.96,2.88,1.56,.6,3.27,.88,4.98,.89,2.2,0,4.4-.47,6.22-1.57,.91-.55,1.72-1.29,2.31-2.22,.55-.86,.88-1.89,.94-3,3.13,.4,6.63,.93,10.08,1.64,.95,.19,1.87-.42,2.06-1.36,.19-.95-.42-1.87-1.36-2.06-3.68-.75-7.37-1.3-10.63-1.72l.26-6.37c0-.14,0-.27-.03-.4,1.84-.76,3.44-1.9,4.72-3.34,2.36-2.66,3.66-6.27,3.68-10.17h0s.14-3.18,.14-3.18c2.21-.08,4.23-.84,5.77-2.09,1.63-1.32,2.73-3.28,2.73-5.49v-3.16c0-2.21-1.11-4.17-2.73-5.49-.67-.54-1.42-.99-2.25-1.33,.28-2.9,.58-6.88,.59-10.53,0-1.39-.04-2.73-.16-3.97-.19-2.08-1.01-3.88-2.08-5.35-1.61-2.21-3.74-3.74-5.47-4.77-.16-.09-.31-.18-.46-.27,.32-.39,.47-.9,.38-1.41-.11-.65-.58-1.18-1.21-1.37-.03,0-.76-.24-1.79-.47-.66-.15-1.43-.29-2.24-.38l.12-.25c.26-.54,.23-1.18-.09-1.7s-.88-.82-1.49-.82c-.07,0-2.45,0-5.54,.55-1.55,.28-3.27,.69-4.99,1.32-.74,.27-1.48,.6-2.2,.96-.07-.1-.15-.2-.24-.28-.39-.37-.93-.53-1.46-.45-.2,.03-4.25,.67-8.34,4.3-2.04,1.81-4.07,4.37-5.56,7.91-1.5,3.53-2.46,8.03-2.46,13.7,0,.87,.03,1.78,.08,2.71-.7,.32-1.34,.72-1.92,1.19-1.63,1.32-2.73,3.28-2.73,5.49v3.16c0,2.21,1.11,4.17,2.73,5.49,1.5,1.23,3.46,1.97,5.6,2.09l.16,3.88h0c.02,3.9,1.32,7.51,3.68,10.18,1.27,1.44,2.87,2.58,4.7,3.34l.25,6.68c-5.69,.66-12.65,1.74-18.46,3.5-3.09,.94-5.85,2.06-7.97,3.52-1.06,.73-1.98,1.56-2.66,2.56-.68,.99-1.11,2.17-1.11,3.43,0,.07,0,.14,0,.2v10.87c0,.46,.19,.91,.51,1.24s.78,.51,1.24,.51h59.29c.97,0,1.75-.78,1.75-1.75s-.78-1.75-1.75-1.75Zm1.31-59.22c.96,.8,1.45,1.76,1.45,2.78v3.16c0,1.02-.49,1.99-1.45,2.78-.62,.51-1.45,.9-2.39,1.12v-8.17h.16c.88,0,1.62-.65,1.74-1.52,0,0,.02-.17,.06-.45,.15,.1,.3,.19,.43,.29ZM55.71,11.22c.7-.42,1.35-.72,1.92-.96,.1,.51,.42,.96,.89,1.21,.62,.33,1.37,.26,1.92-.18,1.09-.88,2.47-1.58,3.93-2.12,2.19-.81,4.55-1.23,6.34-1.44,.03,0,.05,0,.08,0l-.09,.19c-.32,.66-.2,1.45,.31,1.97,.5,.53,1.29,.69,1.96,.4,.03-.02,.37-.1,.81-.09,.37,0,.8,.04,1.25,.1-.06,.23-.1,.47-.06,.71,.09,.64,.52,1.16,1.12,1.39h0s2.16,.84,4.23,2.38c1.04,.77,2.05,1.71,2.81,2.78,.76,1.07,1.27,2.24,1.39,3.55,.1,1.09,.14,2.34,.14,3.66,0,1.89-.09,3.91-.21,5.82-.06-.06-.12-.12-.19-.17-.59-2.47-1.11-4.07-1.12-4.11l-.05-.14c-.43-1.02-1-1.85-1.64-2.5-.96-.98-2.07-1.54-3.03-1.83-.97-.3-1.8-.36-2.35-.36-.36,0-.6,.03-.66,.03l-.2,.04c-2.77,.68-5.42,.93-7.82,.93-3,0-5.61-.39-7.57-.77-.98-.19-1.8-.39-2.45-.54-.33-.08-.61-.14-.86-.19-.13-.03-.25-.05-.38-.07-.13-.02-.26-.04-.45-.04h-.22s.02,0,.02,0c-.08,.01-.44,.01-.89,.04-.69,.05-1.65,.2-2.67,.71-1.02,.51-2.06,1.36-3,2.66-.41,.58-.7,1.2-.96,1.9-.37,.99-.66,2.13-.91,3.33-.21,.06-.41,.16-.58,.29,.21-4.2,1.02-7.51,2.13-10.12,1.94-4.57,4.77-7.06,7.13-8.46Zm-.11,13.14h0Zm-13.78,20.22v-3.16c0-1.02,.49-1.99,1.45-2.78,0,0,.02-.01,.03-.02,.05,.43,.09,.85,.15,1.29,.1,.75,.67,1.35,1.42,1.49l.79,.14v6.94c-.93-.22-1.76-.61-2.39-1.12-.96-.8-1.45-1.76-1.45-2.78Zm11.29,19.31c-1.75-1.97-2.8-4.76-2.8-7.93v-.07s-.81-19.07-.81-19.07c.1-1.03,.24-2.2,.41-3.39,.22-1.54,.5-3.11,.83-4.42,.16-.65,.34-1.24,.52-1.7,.18-.47,.36-.81,.48-.97,.44-.61,.85-1,1.22-1.27,.55-.4,.99-.53,1.43-.61,.22-.04,.43-.05,.66-.06,.18,0,.38-.01,.6-.03,.05,0,.18,.03,.37,.07,.78,.17,2.29,.56,4.24,.9,1.96,.34,4.39,.64,7.14,.64,2.59,0,5.46-.27,8.49-.99,.04,0,.1,0,.19,0,.38,0,1.13,.07,1.84,.41,.36,.17,.71,.4,1.04,.74,.32,.33,.63,.76,.89,1.36,.15,.46,.9,2.92,1.55,6.2l-.97,22.21v.08c0,3.16-1.05,5.96-2.8,7.93-1.76,1.97-4.18,3.17-7.25,3.18h-10c-3.07,0-5.49-1.21-7.25-3.18Zm7.25,6.68h10c.57,0,1.12-.04,1.66-.1l-.36,8.99v.04c-.02,.6-.17,1.05-.42,1.46-.38,.61-1.09,1.16-2.08,1.56-.99,.4-2.23,.61-3.49,.61-1.74,0-3.52-.42-4.73-1.13-.61-.35-1.07-.76-1.37-1.18-.3-.42-.46-.85-.5-1.39l-.33-8.96c.53,.06,1.08,.1,1.64,.1Zm61.35,16.38c0-.74-.48-1.39-1.18-1.64-1.1-.37-1.92-.61-2.34-.83-.21-.11-.33-.2-.42-.28-.09-.09-.16-.19-.26-.41,0,0,0,0,0,0-.1-.23-.11-.36-.12-.5,0-.18,.05-.45,.25-.91,.19-.46,.5-1.07,.86-1.84,.31-.67,.16-1.46-.36-1.98l-2.89-2.84c-.53-.52-1.33-.65-2-.32-.77,.38-1.38,.71-1.83,.91-.46,.2-.72,.26-.9,.26-.12,0-.25-.02-.47-.1,0,0,0,0,0,0-.22-.09-.32-.17-.41-.25-.13-.12-.28-.34-.47-.8-.19-.46-.4-1.12-.7-1.94-.25-.69-.92-1.16-1.66-1.15l-4.05,.04c-.74,0-1.4,.48-1.64,1.18-.37,1.09-.6,1.91-.83,2.34-.11,.22-.2,.34-.28,.43-.09,.09-.19,.16-.41,.26,0,0,0,0,0,0-.23,.1-.35,.11-.49,.11-.18,0-.44-.05-.9-.25-.45-.19-1.06-.51-1.83-.86-.67-.31-1.47-.16-1.99,.37l-2.83,2.9c-.52,.53-.64,1.32-.32,1.99,.38,.78,.71,1.39,.91,1.84,.2,.46,.26,.72,.26,.9,0,.13-.02,.26-.11,.48-.09,.22-.17,.32-.25,.42-.12,.13-.34,.28-.8,.47-.45,.19-1.12,.4-1.93,.7-.69,.26-1.15,.92-1.14,1.66l.04,4.06c0,.74,.48,1.4,1.18,1.64,1.09,.37,1.9,.6,2.33,.83,.22,.11,.34,.2,.42,.29,.09,.09,.17,.19,.26,.41,.1,.23,.11,.36,.12,.5,0,.19-.06,.46-.25,.92-.19,.46-.5,1.06-.86,1.83-.31,.67-.16,1.46,.36,1.98l2.89,2.84c.53,.52,1.33,.65,2,.32,.77-.38,1.38-.71,1.83-.91,.46-.2,.72-.26,.9-.26,.13,0,.25,.02,.47,.11,0,0,0,0,0,0,.22,.09,.32,.16,.41,.25,.13,.12,.28,.34,.47,.81,.19,.46,.4,1.12,.7,1.94,.25,.69,.92,1.16,1.66,1.15l4.05-.04c.74,0,1.4-.48,1.64-1.18,.37-1.09,.6-1.91,.83-2.34,.11-.22,.2-.34,.29-.43,.09-.09,.19-.17,.42-.27,.23-.1,.35-.11,.48-.11,.17,0,.44,.05,.89,.25,.45,.19,1.06,.51,1.83,.87,.68,.31,1.47,.17,1.99-.36l2.83-2.9c.52-.53,.64-1.32,.32-1.99-.38-.78-.71-1.39-.91-1.84-.2-.46-.26-.72-.26-.9,0-.13,.02-.26,.11-.48l-1.62-.65,1.62,.65c.09-.22,.17-.32,.25-.42,.12-.13,.34-.28,.8-.47,.45-.19,1.12-.4,1.93-.7,.69-.26,1.15-.92,1.15-1.66l-.04-4.06Zm-5.05,3.5c-.45,.24-.91,.55-1.32,.98-.41,.42-.74,.95-.97,1.53h0s0,0,0,0h0s0,0,0,0c-.24,.58-.36,1.19-.36,1.78,0,.89,.26,1.65,.55,2.31,.13,.3,.27,.58,.42,.87l-1.08,1.11c-.28-.13-.55-.26-.83-.38-.65-.27-1.39-.52-2.26-.52-.62,0-1.26,.14-1.86,.4-.57,.24-1.09,.59-1.51,1-.63,.63-.99,1.36-1.25,2.03-.12,.3-.22,.61-.32,.91l-1.54,.02c-.19-.53-.38-1.05-.65-1.58-.24-.45-.55-.92-.97-1.32-.42-.41-.95-.74-1.52-.97-.03-.01-.05-.01-.08-.02-.56-.22-1.14-.34-1.7-.34-.89,0-1.65,.26-2.31,.55-.29,.13-.57,.27-.85,.41l-1.11-1.09c.13-.27,.26-.54,.38-.83,.27-.65,.52-1.4,.52-2.28,0-.62-.13-1.26-.4-1.87h0c-.24-.58-.59-1.09-1-1.51-.63-.63-1.35-.98-2.02-1.25-.3-.12-.6-.22-.9-.32l-.02-1.56c.53-.19,1.05-.38,1.58-.65,.45-.24,.91-.55,1.32-.98,.41-.42,.74-.95,.97-1.53h0c.23-.58,.36-1.19,.36-1.78,0-.89-.26-1.65-.55-2.31-.13-.3-.27-.58-.42-.87l1.08-1.11c.28,.13,.55,.26,.83,.38,.65,.27,1.39,.52,2.26,.52,.62,0,1.26-.14,1.87-.4,.03-.01,.06-.03,.08-.05,.54-.24,1.03-.56,1.42-.96,.63-.63,.98-1.35,1.24-2.03,.12-.3,.22-.6,.32-.91l1.54-.02c.19,.53,.38,1.05,.65,1.58,.24,.45,.55,.91,.97,1.32,.39,.38,.87,.68,1.4,.91,.04,.02,.08,.05,.13,.07,.58,.24,1.19,.36,1.78,.36,.89,0,1.65-.26,2.31-.55,.29-.13,.57-.27,.85-.41l1.11,1.09c-.13,.28-.26,.56-.39,.84-.27,.65-.52,1.4-.52,2.26,0,.59,.13,1.21,.37,1.79,0,.02,.01,.05,.02,.08,.24,.57,.58,1.09,.99,1.5,.62,.63,1.35,.99,2.02,1.25,.3,.12,.61,.22,.92,.32l.02,1.56c-.53,.19-1.05,.38-1.58,.65Zm-11.7-7.76c-1.15,0-2.33,.31-3.38,.96-1.98,1.22-3.08,3.35-3.08,5.51,0,1.15,.31,2.33,.96,3.38,1.22,1.98,3.35,3.08,5.51,3.08,1.15,0,2.33-.31,3.38-.96l-.92-1.49,.92,1.49c1.98-1.22,3.08-3.35,3.08-5.51,0-1.15-.31-2.33-.96-3.38-1.22-1.98-3.35-3.08-5.51-3.08Zm1.56,8.99h0c-.49,.3-1.02,.44-1.55,.44-1,0-1.97-.5-2.53-1.41-.3-.49-.44-1.02-.44-1.55,0-1,.5-1.97,1.41-2.53,.49-.3,1.02-.44,1.55-.44,1,0,1.97,.5,2.53,1.41,.3,.49,.44,1.02,.44,1.55,0,1-.5,1.97-1.41,2.53Z"/></svg>