<?xml version="1.0" encoding="UTF-8"?><svg id="e" xmlns="http://www.w3.org/2000/svg" viewBox="0 0 1400 700"><defs><style>.f{fill:#393f45;}.g{fill:#5ac8f5;}.h{fill:#b4becd;}.i{fill:#f90;}.j{fill:#323c46;}</style></defs><path class="h" d="M266.74,633.85h-7.95c-2.63,0-5.12-1.04-6.91-2.83-1.87-1.87-2.9-4.36-2.9-6.91v-69.35c0-5.39,4.36-9.82,9.82-9.82h7.95v88.92Z"/><path class="f" d="M267.01,519.83c-4.29-4.36-10.16-6.78-16.32-6.78H29.09c-12.72,0-23.02,10.3-23.02,23.02v106.69c0,12.72,10.3,23.02,23.02,23.02h9.47c1.24,0,2.35-.69,2.97-1.73s.62-2.42,0-3.46c-.62-1.04-1.73-1.73-2.97-1.73h-9.47c-4.29,0-8.37-1.73-11.41-4.7-3.04-3.04-4.7-7.12-4.7-11.41v-106.69c0-8.92,7.26-16.11,16.11-16.11H250.69c4.29,0,8.37,1.73,11.41,4.7,3.04,3.04,4.7,7.12,4.7,11.41v5.39h-8.02c-7.33,0-13.28,5.95-13.28,13.28v69.28c0,3.53,1.38,6.91,3.87,9.4,2.49,2.49,5.88,3.87,9.4,3.87h8.09v5.53c0,4.29-1.73,8.37-4.7,11.41-3.04,3.04-7.12,4.7-11.41,4.7H79.42c-8.92,0-16.11-7.19-16.11-16.11l.14-76.4c0-2.21,.41-4.36,1.31-6.36,1.24-2.83,3.32-5.25,5.88-6.98,2.56-1.73,5.53-2.63,8.57-2.63h118.51c2.21,0,4.36,.48,6.36,1.38,2.83,1.31,5.32,3.39,6.98,6.02,1.66,2.56,2.63,5.53,2.63,8.64v46.33c0,4.29-1.73,8.37-4.7,11.41-3.04,3.04-7.12,4.7-11.41,4.7H88.69c-1.94,0-3.46,1.52-3.46,3.46s1.52,3.46,3.46,3.46h108.9c12.72,0,23.02-10.3,23.02-23.02v-46.33c-.14-9.06-5.46-17.22-13.69-20.95-2.9-1.31-6.02-1.94-9.2-1.94H79.29c-12.58,0-22.75,10.23-22.75,22.82l-.14,76.4c0,6.08,2.42,11.96,6.78,16.32,4.36,4.36,10.16,6.78,16.32,6.78H250.76c12.72,0,23.02-10.3,23.02-23.02v-106.83c0-6.08-2.42-11.96-6.78-16.25Zm-.28,110.56h-7.95c-1.66,0-3.32-.69-4.49-1.87-1.18-1.18-1.87-2.83-1.87-4.49v-69.28c0-3.53,2.83-6.36,6.36-6.36h8.09v82h-.14Z"/><path class="i" d="M858.33,300.12v11.75h-262.75v-11.75c0-2.63,1.04-5.12,2.83-6.91,1.8-1.8,4.36-2.9,6.91-2.9h243.18c5.39,0,9.82,4.43,9.82,9.82Z"/><path class="f" d="M858.47,325.15c-1.94,0-3.46,1.52-3.46,3.46v99.71c0,3.53-2.9,6.43-6.43,6.43h-243.18c-3.53,0-6.43-2.9-6.43-6.43v-114.09h259.5c1.94,0,3.46-1.52,3.46-3.46v-10.37c0-7.33-5.95-13.34-13.34-13.34h-243.18c-7.33,0-13.34,5.95-13.34,13.34v127.99c0,7.33,5.95,13.34,13.34,13.34h243.18c7.33,0,13.34-5.95,13.34-13.34v-99.77c0-1.94-1.52-3.46-3.46-3.46Zm-257.56-29.32c1.18-1.18,2.83-1.87,4.56-1.87h243.18c3.53,0,6.43,2.9,6.43,6.43v6.91h-256.04v-6.91c0-1.73,.62-3.39,1.87-4.56Z"/><path class="j" d="M694.62,350.36c-7.53,0-11.68,3.44-11.68,8.13-.11,5.22,5.18,7.56,11.5,9.02l6.53,1.56c12.64,2.84,21.77,9.27,21.8,21.38-.04,13.32-10.47,21.8-28.23,21.8s-28.9-8.13-29.29-23.86h14.88c.5,7.28,6.25,10.97,14.24,10.97s12.85-3.62,12.89-8.95c-.04-4.9-4.44-7.17-12.36-9.09l-7.92-1.99c-12.29-2.95-19.85-9.09-19.81-19.81-.07-13.21,11.61-22.01,27.55-22.01s26.84,8.95,27.06,21.91h-14.74c-.57-5.72-5.08-9.05-12.43-9.05Z"/><path class="j" d="M731.94,390.67h15.48c.28,5.33,5.36,8.88,12.14,8.88s12-3.98,11.97-9.76c.04-5.86-5.11-9.98-13.35-9.98h-6.78v-11.29h6.78c7,0,11.86-3.87,11.82-9.59,.04-5.47-4.12-9.23-10.33-9.23s-11.36,3.59-11.54,9.13h-14.74c.21-12.57,11.43-21.3,26.35-21.3s25.1,9.02,25.07,20.49c.04,8.17-5.58,13.92-13.71,15.38v.57c10.69,1.35,16.44,7.81,16.4,16.87,.04,12.43-11.65,21.41-27.98,21.41s-27.34-8.84-27.59-21.55Z"/><path class="g" d="M1392.72,294.65l-145.51,70.32-140.74-68.25,132.76-66.48c5.08-2.9,11.31-2.9,16.39,0l137.11,64.41Z"/><path class="f" d="M1393.45,292.16c-1.56-.93-3.42-1.04-4.98-.31l-140.74,67.73-134.14-63.65c.39-.3,127.82-61.02,127.82-61.02l.42-.21c3.42-1.97,7.67-1.97,11.2,0l.42,.21,101.85,47.81c2.59,1.14,5.6,0,6.85-2.49,1.24-2.49,.1-5.6-2.49-6.85l-101.63-47.71c-6.55-3.69-14.66-3.69-21.2,.01l-127.12,60.46c-7.77,3.75-10.77,10.75-10.79,18.67v120.62c0,7.68,4.15,14.83,10.79,18.67l.31,.21,126.71,60.25c6.55,3.71,14.67,3.71,21.22,0l126.71-60.25,.41-.21c6.64-3.84,10.79-10.99,10.79-18.67v-128.92c0-1.76-.93-3.42-2.39-4.36Zm-7.78,133.27c0,4.02-2.16,7.63-5.55,9.61l-126.59,60.19-.41,.21c-3.42,1.97-7.67,1.97-11.2,0l-.41-.21-126.69-60.19c-3.39-1.98-5.55-5.69-5.55-9.61v-120.25l136.39,64.77c1.45,.73,3.01,.73,4.46,0l135.56-65.13v120.62Z"/><path class="h" d="M197.48,143.31h192c12.99,0,24.72,5.26,33.23,13.77,8.51,8.51,13.76,20.25,13.77,33.23v350c0,12.99-5.26,24.72-13.77,33.23-8.51,8.51-20.25,13.76-33.23,13.77h-88c-1.66,0-3,1.34-3,3s1.34,3,3,3h88c14.63,0,27.9-5.94,37.48-15.52,9.59-9.58,15.52-22.85,15.52-37.48V190.31c0-14.63-5.94-27.9-15.52-37.48-9.58-9.59-22.85-15.52-37.48-15.52H197.48c-1.66,0-3,1.34-3,3s1.34,3,3,3Z"/><path class="h" d="M194.49,292.72c0-3.66-1.45-7.12-4.01-9.75-2.56-2.56-6.08-4.01-9.68-4.01h-63.34c-3.66,0-7.12,1.45-9.68,4.01-2.56,2.56-4.01,6.08-4.01,9.75v29.73l90.37,.35,.35-30.08Z"/><path class="f" d="M122.37,325.97h189.25c2.7,0,5.32,1.11,7.26,2.97,1.94,1.94,2.97,4.56,2.97,7.26v75.44c0,5.67-4.56,10.23-10.23,10.3H117.46c-5.67,0-10.23-4.63-10.23-10.3v-118.93c0-2.77,1.04-5.39,2.97-7.33,1.94-1.94,4.56-3.04,7.26-3.04h63.27c2.7,0,5.32,1.11,7.26,3.04s2.97,4.56,2.97,7.26v9.82c0,1.94,1.52,3.46,3.46,3.46h95.07c1.94,0,3.46-1.52,3.46-3.46s-1.52-3.46-3.46-3.46h-91.55v-6.29c0-4.56-1.8-8.92-5.05-12.17s-7.61-5.05-12.17-5.05h-63.27c-4.56,0-8.92,1.8-12.17,5.05s-5.05,7.61-5.05,12.17v118.93c0,4.56,1.8,8.92,5.05,12.17s7.61,5.05,12.17,5.05h194.16c9.47,0,17.15-7.68,17.15-17.15v-75.37c0-4.56-1.8-8.92-4.98-12.17-3.25-3.25-7.61-5.05-12.17-5.05H122.37c-1.94,0-3.46,1.52-3.46,3.46s1.59,3.39,3.46,3.39Z"/><path class="h" d="M113.71,41.84v36.72c0,2.42,.97,4.77,2.7,6.5,1.73,1.73,4.08,2.7,6.5,2.7h36.72l-45.91-45.91Z"/><path class="f" d="M159.55,103.03c-1.94,0-3.46,1.52-3.46,3.46v121.21c0,1.52-.62,2.97-1.66,4.08-1.11,1.11-2.56,1.66-4.08,1.66H25.96c-1.52,0-2.97-.62-4.08-1.66-1.11-1.11-1.66-2.56-1.66-4.08V51.03c0-1.52,.62-2.97,1.66-4.08,1.11-1.11,2.56-1.66,4.08-1.66H110.18v33.26c0,3.32,1.31,6.57,3.73,8.92,2.35,2.35,5.6,3.73,8.92,3.73h36.51c1.45,.07,2.77-.76,3.32-2.01,.55-1.31,.35-2.83-.69-3.87l-46.67-46.95H25.96c-6.98,0-12.65,5.67-12.65,12.65V227.63c0,6.98,5.67,12.65,12.65,12.65h124.39c6.98,0,12.65-5.67,12.65-12.65V106.49c0-1.94-1.52-3.46-3.46-3.46Zm-40.73-20.4c-1.11-1.11-1.66-2.56-1.66-4.08v-28.56l34.09,34.23h-28.35c-1.52,.07-3.04-.55-4.08-1.59Z"/><path class="h" d="M137.91,139.95c0,1.94-1.52,3.46-3.46,3.46H41.8c-1.94,0-3.46-1.52-3.46-3.46s1.52-3.46,3.46-3.46h92.65c1.87,0,3.46,1.59,3.46,3.46Zm0,27.86c0,1.94-1.52,3.46-3.46,3.46H41.8c-1.94,0-3.46-1.52-3.46-3.46s1.52-3.46,3.46-3.46h92.65c1.87,0,3.46,1.52,3.46,3.46Zm0,28.49c0,1.94-1.52,3.46-3.46,3.46H41.17c-1.94,0-3.46-1.52-3.46-3.46s1.52-3.46,3.46-3.46h93.28c1.87,0,3.46,1.52,3.46,3.46ZM38.34,112.29c0-1.94,1.52-3.46,3.46-3.46h37.34c1.94,0,3.46,1.52,3.46,3.46s-1.52,3.46-3.46,3.46H41.8c-1.94,0-3.46-1.52-3.46-3.46Z"/><path class="h" d="M942.16,344.14l-.03-8.15c0-1.27-.8-2.39-2-2.82-14.66-5.2-26.49-8.52-35.46-13.13-4.49-2.3-8.27-4.9-11.48-8.19-3.21-3.3-5.88-7.32-8.09-12.61l-2.77,1.15,3,.02v-.03c0-.4-.08-.81-.23-1.18-2.28-5.5-3.23-10.4-3.23-15.19,0-3.42,.49-6.81,1.4-10.31,1.35-5.25,3.65-10.76,6.54-16.91,2.89-6.15,6.38-12.93,10.04-20.72,.54-1.15,.3-2.5-.59-3.4l-40.35-40.35c-.9-.9-2.27-1.13-3.42-.58-10.29,4.93-18.84,9.55-26.51,12.88-3.84,1.66-7.45,3-10.96,3.92-3.51,.92-6.9,1.42-10.34,1.42-4.74,0-9.59-.94-15.03-3.19l-1.15,2.77,2.11-2.13-.03-.03c-.27-.27-.61-.49-.96-.64-5.29-2.19-9.31-4.87-12.61-8.09-2.48-2.42-4.56-5.15-6.42-8.27-2.79-4.68-5.08-10.23-7.39-16.69-2.31-6.46-4.63-13.81-7.56-22.03-.43-1.19-1.56-2-2.83-1.99l-56.98,.11c-1.27,0-2.4,.81-2.82,2-5.12,14.57-8.42,26.43-13.02,35.47-2.3,4.53-4.89,8.35-8.18,11.59-3.3,3.24-7.31,5.94-12.58,8.15-.35,.15-.68,.36-.95,.63l-.03,.03,2.1,2.14-1.16-2.77c-5.49,2.29-10.38,3.24-15.15,3.25-3.41,0-6.77-.49-10.26-1.4-5.23-1.36-10.72-3.66-16.84-6.56-6.13-2.9-12.88-6.4-20.65-10.09-1.15-.54-2.52-.3-3.42,.6l-40.2,40.49c-.89,.9-1.12,2.26-.58,3.4,4.93,10.37,9.54,18.95,12.85,26.65,1.66,3.85,2.99,7.47,3.9,10.98,.91,3.51,1.41,6.91,1.41,10.36,0,4.76-.94,9.64-3.19,15.12h0c-2.19,5.31-4.87,9.36-8.09,12.68-2.42,2.49-5.15,4.58-8.27,6.46-4.67,2.81-10.21,5.11-16.65,7.43-6.43,2.32-13.74,4.65-21.9,7.57-1.19,.43-1.99,1.57-1.99,2.83l.03,7.78c0,1.66,1.35,2.99,3.01,2.99,1.66,0,2.99-1.35,2.99-3.01l-.03-7.78h-3s1.01,2.83,1.01,2.83c14.29-5.14,26.19-8.46,36.02-13.51,4.91-2.53,9.3-5.53,13.07-9.42,3.77-3.89,6.89-8.65,9.33-14.58h0c2.51-6.1,3.64-11.83,3.64-17.4,0-4.03-.59-7.96-1.6-11.87-1.53-5.87-4.01-11.71-7-18-2.99-6.29-6.5-13.03-10.14-20.69l-2.71,1.29,2.13,2.11,40.2-40.49-2.13-2.11-1.29,2.71c10.2,4.84,18.76,9.43,26.78,12.87,4.01,1.72,7.89,3.15,11.77,4.16,3.88,1.01,7.78,1.59,11.77,1.59,5.59,0,11.35-1.15,17.46-3.71,.35-.15,.68-.36,.95-.63l.03-.03-2.1-2.14,1.16,2.77c5.89-2.46,10.62-5.61,14.48-9.41,2.89-2.85,5.29-6.05,7.35-9.55,3.1-5.26,5.49-11.18,7.83-17.79,2.34-6.61,4.62-13.92,7.47-22l-2.83-1v3s56.98-.11,56.98-.11v-3s-2.83,1.01-2.83,1.01c5.13,14.41,8.44,26.35,13.47,36.2,2.52,4.92,5.5,9.31,9.37,13.08,3.87,3.77,8.61,6.89,14.51,9.33l1.15-2.77-2.11,2.13,.03,.03c.27,.27,.61,.49,.96,.64,6.06,2.51,11.78,3.65,17.32,3.64,4.03,0,7.96-.59,11.86-1.61,5.87-1.54,11.7-4.04,17.96-7.04,6.27-3,12.97-6.52,20.58-10.16l-1.3-2.71-2.12,2.12,40.35,40.35,2.12-2.12-2.71-1.28c-4.81,10.23-9.38,18.82-12.82,26.87-1.71,4.02-3.14,7.92-4.15,11.82-1.01,3.9-1.59,7.8-1.59,11.81,0,5.6,1.14,11.37,3.69,17.49l2.77-1.15-3-.02v.03c0,.4,.08,.81,.23,1.18,2.45,5.9,5.57,10.64,9.33,14.5,2.82,2.9,5.99,5.3,9.47,7.37,5.22,3.11,11.11,5.51,17.71,7.86,6.6,2.36,13.93,4.67,22.06,7.56l1-2.83h-3s.03,8.16,.03,8.16c0,1.66,1.35,3,3.01,2.99,1.66,0,3-1.35,2.99-3.01h0Z"/><path class="h" d="M513.26,385.98l.03,7.99c0,1.27,.8,2.39,2,2.82,14.5,5.13,26.31,8.43,35.33,13.05,4.51,2.31,8.32,4.91,11.56,8.22,3.24,3.31,5.93,7.34,8.15,12.64h0c2.28,5.51,3.23,10.44,3.24,15.26,0,3.48-.5,6.91-1.42,10.45-1.37,5.3-3.69,10.84-6.59,16.97-2.9,6.13-6.37,12.84-9.98,20.5-.54,1.15-.3,2.5,.59,3.4l40.35,40.34c.9,.9,2.27,1.14,3.42,.58,10.3-4.94,18.84-9.56,26.51-12.89,3.83-1.66,7.45-3,10.95-3.92,3.5-.92,6.89-1.42,10.33-1.42,4.74,0,9.6,.94,15.04,3.19,.35,.14,.74,.22,1.12,.23h.03s.02-3,.02-3l-1.15,2.77c5.29,2.19,9.31,4.87,12.61,8.09,2.48,2.42,4.56,5.16,6.42,8.29,2.79,4.69,5.09,10.25,7.39,16.71,2.31,6.46,4.64,13.81,7.56,22.02,.43,1.19,1.56,2,2.83,1.99l56.98-.1c1.27,0,2.4-.81,2.82-2,5.12-14.58,8.42-26.44,13.04-35.49,2.31-4.53,4.92-8.36,8.23-11.61,3.32-3.25,7.37-5.97,12.7-8.2,5.45-2.28,10.3-3.23,15.04-3.23,3.39,0,6.74,.49,10.21,1.4,5.21,1.36,10.69,3.66,16.81,6.57,6.12,2.91,12.89,6.42,20.67,10.12,1.15,.55,2.52,.31,3.42-.6l40.2-40.49c.89-.9,1.12-2.26,.58-3.4-4.93-10.36-9.54-18.93-12.85-26.63-1.66-3.85-2.99-7.47-3.9-10.98-.91-3.51-1.41-6.91-1.41-10.36,0-4.76,.94-9.65,3.19-15.12,2.19-5.32,4.86-9.36,8.08-12.69,2.42-2.49,5.16-4.59,8.28-6.46,4.68-2.81,10.22-5.12,16.66-7.43,6.43-2.32,13.74-4.64,21.89-7.56,1.19-.43,1.99-1.57,1.99-2.84l-.03-7.46c0-1.66-1.35-2.99-3.01-2.99-1.66,0-2.99,1.35-2.99,3.01l.03,7.46h3s-1.01-2.84-1.01-2.84c-14.28,5.12-26.19,8.44-36.03,13.5-4.91,2.53-9.31,5.53-13.08,9.42-3.78,3.89-6.89,8.66-9.33,14.58-2.51,6.09-3.64,11.83-3.64,17.4,0,4.03,.59,7.96,1.6,11.87,1.53,5.87,4.01,11.72,7,18,2.99,6.29,6.5,13.03,10.14,20.68l2.71-1.29-2.13-2.11-40.2,40.49,2.13,2.11,1.29-2.71c-10.23-4.86-18.79-9.46-26.8-12.91-4-1.72-7.87-3.16-11.75-4.17-3.87-1.01-7.75-1.59-11.73-1.59-5.56,0-11.29,1.15-17.36,3.7-5.93,2.48-10.7,5.65-14.58,9.46-2.91,2.85-5.32,6.06-7.4,9.57-3.12,5.26-5.51,11.19-7.86,17.81-2.34,6.62-4.63,13.93-7.47,22.02l2.83,1v-3s-56.98,.1-56.98,.1v3s2.83-1.01,2.83-1.01c-5.13-14.39-8.44-26.34-13.47-36.2-2.52-4.92-5.49-9.32-9.37-13.1-3.87-3.78-8.61-6.9-14.51-9.34-.35-.15-.74-.23-1.12-.23h-.03s-.02,3-.02,3l1.15-2.77c-6.07-2.52-11.79-3.65-17.34-3.65-4.03,0-7.95,.59-11.85,1.61-5.86,1.54-11.69,4.03-17.95,7.03-6.27,3-12.97,6.52-20.58,10.17l1.3,2.71,2.12-2.12-40.35-40.34-2.12,2.12,2.71,1.28c4.73-10.05,9.3-18.58,12.76-26.64,1.73-4.03,3.17-7.95,4.19-11.88,1.02-3.93,1.61-7.89,1.61-11.95,0-5.62-1.14-11.42-3.69-17.56h0c-2.46-5.91-5.6-10.66-9.4-14.53-2.84-2.9-6.04-5.31-9.53-7.39-5.24-3.12-11.15-5.51-17.74-7.86-6.59-2.34-13.87-4.64-21.91-7.48l-1,2.83h3s-.03-8-.03-8c0-1.66-1.35-2.99-3.01-2.99-1.66,0-2.99,1.35-2.99,3.01h0Z"/><path class="h" d="M1068.03,362.12h-178.69c-1.66,0-3,1.34-3,3s1.34,3,3,3h178.69c1.66,0,3-1.34,3-3s-1.34-3-3-3"/><path class="h" d="M1053.15,350.13l14.99,14.99-14.99,14.99c-1.17,1.17-1.17,3.07,0,4.24s3.07,1.17,4.24,0l17.11-17.11c.57-.57,.88-1.32,.88-2.12s-.31-1.55-.88-2.12l-17.11-17.11c-1.17-1.17-3.07-1.17-4.24,0-1.17,1.17-1.17,3.07,0,4.24h0Z"/><path class="h" d="M358.04,368.42h208.69c1.66,0,3-1.34,3-3s-1.34-3-3-3h-208.69c-1.66,0-3,1.34-3,3s1.34,3,3,3"/><path class="h" d="M549.15,350.42l14.99,14.99-14.99,14.99c-1.17,1.17-1.17,3.07,0,4.24,1.17,1.17,3.07,1.17,4.24,0l17.11-17.11c.56-.56,.88-1.33,.88-2.12s-.32-1.56-.88-2.12l-17.11-17.11c-1.17-1.17-3.07-1.17-4.24,0-1.17,1.17-1.17,3.07,0,4.24h0Z"/></svg>