<svg width="1400" height="700" viewBox="0 0 1400 700" fill="none" xmlns="http://www.w3.org/2000/svg">
<path d="M203.32 311.16L106.32 358.04L12.5 312.54L101 268.22C102.663 267.269 104.545 266.769 106.46 266.769C108.375 266.769 110.257 267.269 111.92 268.22L203.32 311.16Z" fill="#5AC8F5"/>
<path d="M203.81 309.5C203.315 309.198 202.755 309.021 202.176 308.985C201.598 308.948 201.019 309.053 200.49 309.29L106.66 354.44L17.2302 312C17.4916 311.8 17.7655 311.616 18.0502 311.45L102.44 271.32L102.72 271.19C103.858 270.541 105.145 270.2 106.455 270.2C107.765 270.2 109.052 270.541 110.19 271.19L110.46 271.32L178.36 303.2C179.19 303.559 180.125 303.587 180.975 303.279C181.825 302.97 182.524 302.348 182.93 301.54C183.121 301.132 183.229 300.69 183.249 300.24C183.269 299.789 183.199 299.34 183.045 298.916C182.891 298.493 182.655 298.104 182.35 297.771C182.046 297.439 181.679 297.17 181.27 296.98L113.51 265.17C111.353 263.958 108.92 263.321 106.445 263.321C103.971 263.321 101.537 263.958 99.3802 265.17L14.8402 305.35L14.6302 305.49C12.6619 306.629 10.9927 308.219 9.76018 310.13L9.65018 310.19C9.10762 310.525 8.67469 311.011 8.40464 311.588C8.13459 312.165 8.03919 312.809 8.13018 313.44V313.53C7.66944 314.955 7.43328 316.443 7.43018 317.94V398.35C7.43582 400.873 8.10268 403.35 9.36426 405.534C10.6258 407.719 12.438 409.534 14.6202 410.8L14.8302 410.94L99.3102 451.1C101.471 452.314 103.907 452.952 106.385 452.952C108.863 452.952 111.3 452.314 113.46 451.1L197.93 410.94L198.21 410.8C200.391 409.533 202.202 407.717 203.463 405.533C204.725 403.349 205.393 400.872 205.4 398.35V312.35C205.388 311.781 205.237 311.224 204.96 310.727C204.683 310.23 204.288 309.809 203.81 309.5ZM198.62 398.35C198.618 399.649 198.276 400.925 197.626 402.049C196.977 403.174 196.044 404.109 194.92 404.76L110.53 444.88L110.26 445.02C109.122 445.669 107.835 446.01 106.525 446.01C105.215 446.01 103.928 445.669 102.79 445.02L102.51 444.88L18.0502 404.76C16.9318 404.103 16.0029 403.167 15.3544 402.043C14.7059 400.92 14.3599 399.647 14.3502 398.35V318.18L105.28 361.36C105.743 361.602 106.258 361.728 106.78 361.728C107.303 361.728 107.817 361.602 108.28 361.36L198.65 317.94L198.62 398.35Z" fill="#393F45"/>
<path d="M533.39 350.64H236.71C234.721 350.64 232.813 351.43 231.407 352.837C230 354.243 229.21 356.151 229.21 358.14C229.21 360.129 230 362.037 231.407 363.443C232.813 364.85 234.721 365.64 236.71 365.64H533.4C535.389 365.64 537.297 364.85 538.703 363.443C540.11 362.037 540.9 360.129 540.9 358.14C540.9 356.151 540.11 354.243 538.703 352.837C537.297 351.43 535.389 350.64 533.4 350.64" fill="#B4BECD"/>
<path d="M507.18 338.19L527.18 358.14L507.18 378.14C505.773 379.547 504.982 381.455 504.982 383.445C504.982 385.435 505.773 387.343 507.18 388.75C508.587 390.157 510.495 390.948 512.485 390.948C514.475 390.948 516.383 390.157 517.79 388.75L543.05 363.49C543.747 362.794 544.3 361.967 544.677 361.056C545.054 360.146 545.248 359.171 545.248 358.185C545.248 357.2 545.054 356.224 544.677 355.314C544.3 354.404 543.747 353.577 543.05 352.88L517.79 327.62C516.383 326.213 514.475 325.423 512.485 325.423C510.495 325.423 508.587 326.213 507.18 327.62C505.773 329.027 504.982 330.935 504.982 332.925C504.982 334.915 505.773 336.823 507.18 338.23V338.19Z" fill="#B4BECD"/>
<path d="M727.11 416.14L738.38 460.79H660.94L672.54 416.14H727.11ZM816.11 273.14H584C582.713 273.14 581.44 273.394 580.251 273.886C579.063 274.379 577.983 275.101 577.074 276.011C576.165 276.921 575.444 278.002 574.952 279.191C574.461 280.379 574.209 281.654 574.21 282.94V282.94V294.7H825.9V282.89C825.9 281.604 825.646 280.33 825.154 279.141C824.661 277.953 823.939 276.873 823.029 275.964C822.119 275.055 821.038 274.334 819.849 273.842C818.661 273.351 817.386 273.099 816.1 273.1L816.11 273.14ZM700 310.49C691.215 310.49 682.626 313.095 675.322 317.976C668.017 322.857 662.323 329.795 658.961 337.911C655.599 346.028 654.72 354.959 656.433 363.576C658.147 372.193 662.378 380.108 668.59 386.32C674.803 392.532 682.717 396.763 691.334 398.477C699.951 400.191 708.882 399.311 716.999 395.949C725.115 392.587 732.053 386.893 736.934 379.589C741.815 372.284 744.42 363.696 744.42 354.91C744.42 343.129 739.74 331.831 731.41 323.5C723.079 315.17 711.781 310.49 700 310.49V310.49Z" fill="#5AC8F5"/>
<path d="M694.12 359.09H700.4L697.63 367.46L693.1 371.65V376.19L688.56 379.65L687.56 387.33L681.27 385.26L679.89 379.67L680.89 365.02L672.52 363.63L668.76 354.74L671.7 350.65L664.84 345.81L660.11 335.51C664.959 325.865 673.033 318.223 682.93 313.91L685.75 317.91L696.57 320.68V325.79H691.19L687.5 333.59L680.17 337.74H670.6L670.74 342.97L673.51 345.41L672.82 349.95L678.05 348.56L680.5 352.41H690.36L694.12 359.09ZM713.31 326L725.52 329.84L733.01 325.21C729.423 321.26 725.159 317.982 720.42 315.53L714.35 320.45L706.14 317.99L703.14 325.68L707.68 328.12L713.31 326ZM736.67 329.84L726.22 333.98L715 331.39L706.44 332.04L703.22 335.6V346.44L714.74 351.81L719.97 348.31L724.08 350.68L724.16 357.73L729.05 367.16L727.66 372.39L734.97 378.67L736.71 380.05C746.28 363.93 747.71 347.28 736.71 329.79L736.67 329.84Z" fill="white"/>
<path d="M825.93 308.23C825.475 308.23 825.026 308.319 824.606 308.493C824.186 308.667 823.805 308.922 823.483 309.243C823.162 309.565 822.907 309.946 822.733 310.366C822.559 310.786 822.47 311.236 822.47 311.69V405.91C822.471 406.753 822.306 407.589 821.984 408.368C821.662 409.148 821.189 409.856 820.592 410.452C819.996 411.049 819.288 411.522 818.508 411.844C817.729 412.166 816.893 412.331 816.05 412.33H583.94C582.24 412.327 580.61 411.651 579.407 410.45C578.204 409.249 577.525 407.62 577.52 405.92V297.29H825.93C826.848 297.29 827.728 296.925 828.376 296.276C829.025 295.628 829.39 294.748 829.39 293.83V283.46C829.395 279.926 827.997 276.535 825.503 274.032C823.009 271.528 819.624 270.118 816.09 270.11H583.94C582.19 270.109 580.457 270.452 578.839 271.121C577.222 271.79 575.753 272.771 574.515 274.008C573.277 275.245 572.295 276.714 571.625 278.33C570.955 279.947 570.61 281.68 570.61 283.43V405.91C570.61 409.445 572.014 412.836 574.514 415.336C577.014 417.835 580.405 419.24 583.94 419.24H667.73L657.6 457.85C657.368 458.737 657.499 459.68 657.962 460.471C658.425 461.262 659.183 461.837 660.07 462.07C660.354 462.141 660.647 462.178 660.94 462.18H738.38C738.834 462.18 739.284 462.09 739.704 461.917C740.124 461.743 740.505 461.488 740.826 461.166C741.148 460.845 741.403 460.464 741.576 460.044C741.75 459.624 741.84 459.174 741.84 458.72C741.843 458.426 741.806 458.133 741.73 457.85L731.6 419.25H816C819.534 419.245 822.921 417.838 825.42 415.34C827.918 412.841 829.325 409.454 829.33 405.92V311.69C829.33 310.778 828.969 309.904 828.326 309.257C827.684 308.611 826.811 308.245 825.9 308.24L825.93 308.23ZM579.4 278.92C579.994 278.321 580.702 277.845 581.481 277.521C582.26 277.196 583.096 277.029 583.94 277.03H816.05C816.892 277.027 817.726 277.191 818.505 277.511C819.284 277.832 819.992 278.303 820.588 278.897C821.185 279.492 821.658 280.198 821.981 280.976C822.304 281.754 822.47 282.588 822.47 283.43V283.43V290.34H577.47V283.43C577.479 282.588 577.654 281.756 577.985 280.982C578.316 280.208 578.797 279.507 579.4 278.92ZM733.9 455.24H665.45L674.9 419.24H724.47L733.9 455.24ZM733.79 320.84C730.321 317.387 726.345 314.484 722 312.23L721.77 312.12C711.398 306.811 699.444 305.472 688.154 308.356C676.864 311.24 667.017 318.147 660.461 327.78C653.905 337.413 651.093 349.108 652.553 360.668C654.012 372.229 659.644 382.858 668.388 390.559C677.133 398.26 688.388 402.502 700.04 402.489C711.692 402.475 722.939 398.207 731.666 390.487C740.392 382.766 745.999 372.124 747.433 360.56C748.866 348.997 746.028 337.308 739.45 327.69V327.64C737.781 325.213 735.889 322.947 733.8 320.87L733.79 320.84ZM727.38 324.3L724.94 325.81L716.15 323C716.244 322.939 716.334 322.872 716.42 322.8L720.68 319.34C723.075 320.755 725.32 322.41 727.38 324.28V324.3ZM707.38 323.79L708.07 321.93L711.07 322.83L707.88 324L707.38 323.79ZM713.71 316.13L713.47 316.32L707 314.38C706.162 314.13 705.262 314.206 704.477 314.591C703.693 314.977 703.084 315.644 702.77 316.46L699.91 324V320.48C699.911 319.714 699.657 318.97 699.188 318.365C698.719 317.76 698.062 317.329 697.32 317.14L689.42 315.14C697.439 313.016 705.912 313.364 713.73 316.14L713.71 316.13ZM671 325.77C674.12 322.654 677.719 320.057 681.66 318.08L682.84 319.74C683.327 320.41 684.035 320.885 684.84 321.08L689.94 322.4C689.088 322.71 688.391 323.342 688 324.16L684.78 330.96L679.2 334.15H670.55C669.632 334.15 668.752 334.514 668.103 335.163C667.454 335.812 667.09 336.692 667.09 337.61V337.71L667.22 342.71L663.87 335.39C665.763 331.852 668.165 328.61 671 325.77V325.77ZM681.37 361.43L674.87 360.34L672.59 355L673.98 353.11L676.46 352.45L677.54 354.15C677.853 354.641 678.284 355.045 678.795 355.324C679.305 355.604 679.878 355.75 680.46 355.75H688.3L691.07 360.59C691.37 361.122 691.806 361.565 692.333 361.874C692.86 362.183 693.459 362.347 694.07 362.35H695.55L694.55 365.35L690.55 368.97C690.198 369.293 689.918 369.685 689.727 370.123C689.536 370.56 689.438 371.033 689.44 371.51V374.34L686.25 376.79C685.569 377.342 685.122 378.132 685 379L684.51 382.54L683.99 382.36L683.19 379.16L684.19 365.05C684.25 364.195 683.99 363.349 683.462 362.675C682.933 362.001 682.174 361.546 681.33 361.4L681.37 361.43ZM700 395.67C693.744 395.66 687.573 394.218 681.96 391.456C676.346 388.693 671.44 384.682 667.616 379.731C663.792 374.78 661.152 369.019 659.897 362.89C658.643 356.76 658.808 350.425 660.38 344.37L661.62 347.09C661.881 347.643 662.28 348.118 662.78 348.47L666.78 351.24L665.88 352.48C665.536 352.963 665.322 353.527 665.257 354.117C665.192 354.707 665.279 355.303 665.51 355.85L669.27 364.75C669.496 365.288 669.856 365.76 670.314 366.122C670.772 366.484 671.314 366.724 671.89 366.82L677.16 367.7L676.33 379.21C676.308 379.576 676.341 379.944 676.43 380.3L677.81 385.89C677.954 386.453 678.236 386.97 678.631 387.396C679.025 387.822 679.52 388.143 680.07 388.33L686.36 390.4C687.23 390.688 688.178 390.619 688.998 390.209C689.817 389.798 690.44 389.079 690.73 388.21C690.801 388.01 690.848 387.801 690.87 387.59L691.73 381.32L695.14 378.7C695.569 378.376 695.916 377.958 696.156 377.477C696.395 376.997 696.52 376.467 696.52 375.93V372.93L699.95 369.77C700.38 369.375 700.7 368.875 700.88 368.32L703.65 359.95C703.938 359.08 703.869 358.131 703.459 357.312C703.048 356.493 702.329 355.87 701.46 355.58C701.109 355.46 700.741 355.4 700.37 355.4H696.1L693.34 350.56C693.037 350.03 692.601 349.588 692.075 349.28C691.548 348.971 690.95 348.805 690.34 348.8H682.34L680.95 346.6C680.557 345.98 679.976 345.502 679.293 345.236C678.609 344.97 677.858 344.929 677.15 345.12H676.95C676.931 344.654 676.817 344.196 676.616 343.775C676.415 343.354 676.13 342.978 675.78 342.67L674.12 341.22V341.05H680.12C680.72 341.049 681.31 340.891 681.83 340.59L689.16 336.4C689.769 336.049 690.254 335.518 690.55 334.88L693.31 329.06H696.51C696.426 328.397 696.61 327.728 697.019 327.2C697.429 326.672 698.032 326.328 698.695 326.245C699.358 326.161 700.027 326.345 700.555 326.754C701.083 327.164 701.426 327.767 701.51 328.43L703.7 329.6L700.59 333.06C700.02 333.695 699.7 334.516 699.69 335.37V346.22C699.698 346.872 699.89 347.509 700.244 348.058C700.598 348.606 701.099 349.043 701.69 349.32L713.21 354.69C713.748 354.936 714.34 355.04 714.93 354.993C715.52 354.946 716.088 354.749 716.58 354.42L720.04 352.12L720.58 352.44L720.64 357.52C720.643 358.06 720.777 358.592 721.03 359.07L725.29 367.3L724.29 371.25C724.121 371.877 724.133 372.54 724.324 373.161C724.515 373.781 724.878 374.336 725.37 374.76L731.93 380.39C728.094 385.168 723.233 389.023 717.706 391.668C712.179 394.313 706.127 395.681 700 395.67V395.67ZM735.78 374.67L731.42 370.97L732.25 367.84C732.468 367.008 732.372 366.125 731.98 365.36L727.48 356.67L727.41 350.45C727.401 349.849 727.236 349.262 726.93 348.744C726.625 348.227 726.191 347.798 725.67 347.5L721.56 345.13C721.002 344.806 720.364 344.645 719.719 344.664C719.074 344.684 718.447 344.883 717.91 345.24L714.3 347.66L706.52 344V336.68L707.9 335.13L714.56 334.63L725.3 337.06C725.968 337.205 726.663 337.149 727.3 336.9L735.1 333.83C738.75 339.99 740.72 347 740.813 354.159C740.906 361.319 739.119 368.377 735.63 374.63L735.78 374.67Z" fill="#393F45"/>
<path d="M1269 194.49V216H1114.14V194.49C1115.52 180.97 1150.36 174.55 1172.82 171.8H1175.53L1175.66 174.93C1176.2 177.49 1178.24 179.77 1181.26 181.16L1188.86 184.69C1189.72 185.076 1190.65 185.275 1191.59 185.275C1192.53 185.275 1193.46 185.076 1194.32 184.69L1201.92 181.16C1204.92 179.78 1206.98 177.47 1207.51 174.93L1207.65 171.62H1210.37C1233.45 174.15 1269.66 180.42 1269 194.49ZM1173.2 124.31C1173.77 129.264 1176.15 133.834 1179.87 137.151C1183.6 140.468 1188.41 142.301 1193.4 142.301C1198.38 142.301 1203.19 140.468 1206.92 137.151C1210.64 133.834 1213.02 129.264 1213.59 124.31C1213.7 123.4 1213.44 122.485 1212.87 121.766C1212.3 121.047 1211.47 120.582 1210.57 120.475C1209.66 120.368 1208.74 120.626 1208.02 121.193C1207.3 121.761 1206.84 122.59 1206.73 123.5C1206.34 126.762 1204.77 129.769 1202.31 131.95C1199.85 134.131 1196.68 135.335 1193.4 135.335C1190.11 135.335 1186.94 134.131 1184.48 131.95C1182.02 129.769 1180.45 126.762 1180.06 123.5C1179.95 122.59 1179.49 121.761 1178.77 121.193C1178.05 120.626 1177.13 120.368 1176.23 120.475C1175.32 120.582 1174.49 121.047 1173.92 121.766C1173.35 122.485 1173.09 123.4 1173.2 124.31V124.31Z" fill="#5AC8F5"/>
<path d="M1272.44 194.09C1272.44 192.869 1272.24 191.657 1271.85 190.5C1271.1 188.378 1269.86 186.462 1268.23 184.91C1266.74 183.475 1265.09 182.223 1263.31 181.18C1259.72 179.118 1255.93 177.442 1251.99 176.18C1245.2 174.019 1238.27 172.331 1231.25 171.13C1224.25 169.86 1217.25 168.92 1211.16 168.23L1211.65 156.02V155.92C1217.53 154.093 1222.67 150.432 1226.32 145.473C1229.97 140.515 1231.94 134.518 1231.94 128.36V120.65C1235.27 120.181 1238.41 118.828 1241.04 116.73C1242.65 115.422 1243.98 113.799 1244.94 111.96C1245.92 110.083 1246.43 107.997 1246.43 105.88V99.6599C1246.43 97.5428 1245.92 95.4569 1244.94 93.5799C1243.52 90.9072 1241.36 88.6971 1238.72 87.2099L1239.41 76.5699V76.3399C1239.37 71.5346 1238.48 66.7743 1236.78 62.2799C1234.3 55.4789 1230.15 49.4143 1224.7 44.6499C1222.02 42.3285 1218.98 40.4606 1215.7 39.1199C1212.37 37.7482 1208.8 37.0416 1205.2 37.0399H1182.56C1176.8 36.9883 1171.13 38.4558 1166.11 41.2945C1161.1 44.1333 1156.92 48.243 1154 53.2099C1150.19 59.4399 1147.78 67.1199 1147 76.0899C1146.99 76.2597 1146.99 76.43 1147 76.5999L1147.69 87.2499C1146.87 87.7195 1146.09 88.251 1145.35 88.8399C1143.74 90.148 1142.41 91.7711 1141.45 93.6099C1140.47 95.4879 1139.96 97.5726 1139.95 99.6899V105.92C1139.96 108.037 1140.47 110.121 1141.45 112C1142.93 114.767 1145.19 117.038 1147.95 118.53C1149.98 119.628 1152.2 120.35 1154.49 120.66V128.38C1154.5 133.931 1156.1 139.363 1159.12 144.024C1162.13 148.685 1166.43 152.377 1171.49 154.66L1172 168.42C1166.47 169.11 1160.15 170.01 1153.78 171.19C1148.87 172.1 1143.92 173.19 1139.21 174.44C1135.8 175.35 1132.43 176.44 1129.13 177.66C1124.77 179.191 1120.66 181.369 1116.94 184.12C1115.34 185.364 1113.94 186.848 1112.79 188.52C1111.66 190.193 1110.95 192.114 1110.72 194.12C1110.71 194.236 1110.71 194.353 1110.72 194.47V216C1110.77 216.884 1111.15 217.716 1111.8 218.325C1112.44 218.934 1113.29 219.274 1114.18 219.274C1115.06 219.274 1115.91 218.934 1116.56 218.325C1117.2 217.716 1117.58 216.884 1117.63 216V194.72C1117.69 194.245 1117.81 193.78 1118 193.34C1118.53 192.193 1119.3 191.171 1120.25 190.34C1122.97 188.054 1126.05 186.239 1129.36 184.97C1136.25 182.262 1143.38 180.199 1150.65 178.81C1158.07 177.27 1165.65 176.13 1172.27 175.31V175.57C1172.69 177.492 1173.61 179.269 1174.94 180.72C1176.3 182.206 1177.95 183.404 1179.78 184.24L1187.39 187.77C1188.7 188.368 1190.13 188.678 1191.58 188.678C1193.02 188.678 1194.45 188.368 1195.76 187.77L1203.36 184.24C1205.2 183.408 1206.84 182.21 1208.2 180.72C1209.53 179.27 1210.46 177.493 1210.88 175.57C1210.91 175.408 1210.93 175.244 1210.94 175.08C1216.38 175.7 1222.48 176.52 1228.59 177.59C1233.43 178.44 1238.32 179.45 1242.86 180.59C1246.08 181.429 1249.25 182.43 1252.37 183.59C1256.01 184.821 1259.43 186.631 1262.5 188.95C1263.45 189.7 1264.26 190.614 1264.88 191.65C1265.32 192.37 1265.56 193.196 1265.57 194.04V212.47H1134.55C1133.66 212.476 1132.8 212.826 1132.16 213.449C1131.52 214.071 1131.15 214.917 1131.11 215.81C1131.08 216.702 1131.4 217.572 1131.99 218.238C1132.59 218.903 1133.42 219.312 1134.31 219.38H1269C1269.45 219.38 1269.9 219.29 1270.32 219.116C1270.74 218.942 1271.12 218.687 1271.44 218.366C1271.76 218.044 1272.02 217.663 1272.19 217.243C1272.36 216.823 1272.45 216.374 1272.45 215.92V194.49C1272.43 194.36 1272.44 194.22 1272.44 194.09ZM1239.44 99.6299V105.85C1239.45 106.861 1239.21 107.86 1238.75 108.76C1237.9 110.315 1236.61 111.585 1235.04 112.41C1234.05 112.95 1232.99 113.35 1231.89 113.6V91.8999C1232.13 91.9599 1232.37 91.9999 1232.58 92.0699C1232.97 92.1822 1233.35 92.3158 1233.72 92.4699V92.4699C1234.73 92.8704 1235.68 93.4234 1236.53 94.1099C1237.41 94.8136 1238.14 95.6919 1238.67 96.6899C1239.15 97.5951 1239.4 98.6054 1239.39 99.6299H1239.44ZM1157.01 62.3899C1159.04 56.8928 1162.63 52.1051 1167.33 48.6099C1171.77 45.4707 1177.1 43.8186 1182.54 43.8899H1205.16C1208.8 43.9168 1212.37 44.8702 1215.53 46.6599C1220.64 49.6255 1224.84 53.9305 1227.68 59.1099C1230.69 64.3091 1232.32 70.1856 1232.44 76.1899L1231.86 84.8199H1231.65L1231.09 84.7599L1230.4 84.6899H1228.3C1227.68 84.6353 1227.05 84.7506 1226.49 85.0236C1225.93 85.2966 1225.45 85.7169 1225.11 86.2399C1223.53 88.685 1222.1 91.2229 1220.82 93.8399C1215.3 92.3004 1209.97 90.1609 1204.92 87.4599C1198.63 84.0609 1192.87 79.7735 1187.81 74.7299C1187.21 74.1364 1186.4 73.7852 1185.56 73.7427C1184.71 73.7002 1183.88 73.9695 1183.22 74.4995C1182.56 75.0295 1182.12 75.7834 1181.97 76.6183C1181.83 77.4533 1182 78.3113 1182.45 79.0299L1191.56 93.4799L1190.74 93.1699L1190.41 93.0399L1189.41 92.6299L1188.83 92.3899L1187.35 91.7599L1186.82 91.5299L1185.29 90.8399L1184.83 90.6099L1183.22 89.8499L1182.85 89.6699L1181.17 88.8199L1180.89 88.6799L1179.12 87.7599L1178.95 87.6699L1177.08 86.6699C1175.75 85.9799 1174.44 85.1999 1173.15 84.4599C1167.97 81.4599 1163.15 78.4599 1159.15 76.1699C1158.76 75.9457 1158.32 75.8018 1157.87 75.7463C1157.42 75.6908 1156.96 75.7249 1156.52 75.8467C1156.09 75.9684 1155.68 76.1753 1155.32 76.4556C1154.96 76.7358 1154.66 77.0839 1154.44 77.4799C1154.3 77.7173 1154.19 77.973 1154.12 78.2399L1154 76.4499C1154.33 71.639 1155.36 66.9021 1157.06 62.3899H1157.01ZM1147.53 108.78C1147.07 107.88 1146.83 106.881 1146.84 105.87V99.6499C1146.83 98.6384 1147.07 97.64 1147.53 96.7399C1148.38 95.183 1149.68 93.913 1151.25 93.0899C1151.62 92.8867 1152.01 92.7031 1152.4 92.5399H1152.53C1153.14 92.3015 1153.76 92.1077 1154.39 91.9599V113.68C1152.67 113.299 1151.05 112.529 1149.67 111.43C1148.8 110.698 1148.09 109.797 1147.58 108.78H1147.53ZM1161.36 128.37V85.4999L1168.23 89.5599L1168.65 89.7999L1171.2 91.2599L1172.43 91.9499L1173.57 92.5799L1174.87 93.2699L1175.51 93.6099C1175.68 93.6999 1175.87 93.7899 1176.04 93.8899L1177.48 94.6399L1178.48 95.1799L1180.77 96.3099H1180.87L1181.74 96.7099L1183.45 97.4999C1183.79 97.6599 1184.14 97.7999 1184.45 97.9599L1186.21 98.6999L1186.83 98.9599L1187.2 99.1199L1187.59 99.2699L1189.41 99.9599L1189.66 100.05C1190.32 100.29 1190.97 100.53 1191.66 100.74L1192.11 100.89C1192.78 101.103 1193.44 101.303 1194.11 101.49H1194.18L1196.18 102.03L1196.62 102.13C1197.31 102.29 1197.96 102.44 1198.62 102.57C1199.28 102.702 1199.97 102.637 1200.59 102.383C1201.22 102.129 1201.76 101.696 1202.14 101.139C1202.52 100.582 1202.73 99.9254 1202.75 99.25C1202.76 98.5746 1202.57 97.9104 1202.21 97.3399L1198.68 91.7499C1199.68 92.3199 1200.62 92.8699 1201.59 93.4099C1207.99 96.8206 1214.79 99.4174 1221.83 101.14C1222.37 101.271 1222.94 101.271 1223.48 101.139C1224.03 101.007 1224.53 100.746 1224.95 100.38V128.3C1224.95 131.181 1224.38 134.033 1223.28 136.694C1222.18 139.356 1220.56 141.774 1218.52 143.81C1216.49 145.847 1214.07 147.462 1211.41 148.563C1208.74 149.665 1205.89 150.231 1203.01 150.23H1183.24C1177.45 150.201 1171.91 147.888 1167.83 143.793C1163.74 139.699 1161.43 134.156 1161.41 128.37H1161.36ZM1202.99 176.17C1202.25 176.956 1201.36 177.588 1200.37 178.03L1192.8 181.57C1191.99 181.903 1191.08 181.903 1190.27 181.57L1182.67 178.03C1181.68 177.588 1180.79 176.956 1180.05 176.17C1179.59 175.668 1179.24 175.065 1179.05 174.41L1178.36 156.8C1179.96 157.072 1181.58 157.209 1183.2 157.21H1203C1203.56 157.21 1204.1 157.21 1204.65 157.16L1204 174.4C1203.82 175.059 1203.47 175.664 1203 176.16L1202.99 176.17Z" fill="#323C46"/>
<path d="M1387.23 426.71V448.19H1232.4V426.71C1233.78 413.19 1268.62 406.77 1291.08 404.02H1293.79L1293.93 407.15C1294.47 409.71 1296.5 411.99 1299.52 413.38L1307.13 416.91C1307.99 417.296 1308.92 417.495 1309.85 417.495C1310.79 417.495 1311.72 417.296 1312.58 416.91L1320.19 413.38C1323.19 412 1325.19 409.69 1325.77 407.15L1325.91 403.84H1328.64C1351.71 406.37 1387.93 412.64 1387.23 426.71ZM1291.43 356.53C1292 361.484 1294.38 366.054 1298.1 369.371C1301.83 372.688 1306.64 374.521 1311.62 374.521C1316.61 374.521 1321.42 372.688 1325.15 369.371C1328.87 366.054 1331.25 361.484 1331.82 356.53C1331.93 355.621 1331.67 354.705 1331.1 353.986C1330.53 353.267 1329.7 352.803 1328.79 352.695C1327.89 352.588 1326.97 352.846 1326.25 353.413C1325.53 353.981 1325.07 354.811 1324.96 355.72C1324.56 358.974 1322.98 361.97 1320.53 364.143C1318.07 366.315 1314.91 367.514 1311.63 367.514C1308.35 367.514 1305.19 366.315 1302.73 364.143C1300.28 361.97 1298.7 358.974 1298.3 355.72C1298.17 354.828 1297.7 354.021 1296.98 353.472C1296.27 352.922 1295.37 352.674 1294.47 352.78C1293.57 352.885 1292.76 353.336 1292.19 354.037C1291.62 354.738 1291.35 355.632 1291.43 356.53V356.53Z" fill="#5AC8F5"/>
<path d="M1390.7 426.31C1390.7 425.089 1390.5 423.877 1390.11 422.72C1389.36 420.598 1388.13 418.683 1386.5 417.13C1385.01 415.695 1383.36 414.443 1381.57 413.4C1377.98 411.337 1374.19 409.661 1370.25 408.4C1363.46 406.237 1356.53 404.549 1349.51 403.35C1342.51 402.08 1335.51 401.14 1329.42 400.45L1329.91 388.24V388.14C1335.79 386.313 1340.93 382.652 1344.58 377.694C1348.23 372.735 1350.2 366.738 1350.2 360.58V352.87C1353.53 352.403 1356.67 351.05 1359.3 348.95C1360.91 347.642 1362.24 346.019 1363.2 344.18C1364.18 342.303 1364.69 340.217 1364.69 338.1V331.87C1364.69 329.753 1364.18 327.667 1363.2 325.79C1361.78 323.117 1359.62 320.907 1356.98 319.42L1357.67 308.78V308.55C1357.62 303.746 1356.71 298.989 1355 294.5C1352.54 287.709 1348.42 281.646 1343 276.87C1340.32 274.549 1337.28 272.681 1334 271.34C1330.67 269.968 1327.1 269.262 1323.5 269.26H1300.86C1295.09 269.2 1289.41 270.664 1284.39 273.503C1279.37 276.342 1275.19 280.457 1272.27 285.43C1268.45 291.66 1266.04 299.34 1265.27 308.31C1265.26 308.48 1265.26 308.65 1265.27 308.82L1265.96 319.47C1265.14 319.937 1264.36 320.469 1263.63 321.06C1262.01 322.365 1260.68 323.989 1259.72 325.83C1258.74 327.707 1258.23 329.793 1258.23 331.91V338.14C1258.23 340.257 1258.74 342.343 1259.72 344.22C1261.2 346.991 1263.46 349.262 1266.23 350.75C1268.26 351.85 1270.47 352.571 1272.76 352.88V360.6C1272.77 366.151 1274.37 371.583 1277.39 376.244C1280.4 380.905 1284.7 384.598 1289.76 386.88L1290.27 400.64C1284.74 401.33 1278.42 402.23 1272.05 403.41C1267.15 404.32 1262.19 405.41 1257.48 406.66C1254.07 407.567 1250.71 408.64 1247.4 409.88C1243.04 411.411 1238.93 413.589 1235.21 416.34C1233.61 417.582 1232.21 419.067 1231.07 420.74C1229.93 422.41 1229.22 424.332 1228.99 426.34C1228.98 426.456 1228.98 426.574 1228.99 426.69V448.17C1228.99 449.088 1229.35 449.968 1230 450.617C1230.65 451.266 1231.53 451.63 1232.45 451.63C1233.37 451.63 1234.25 451.266 1234.9 450.617C1235.55 449.968 1235.91 449.088 1235.91 448.17V426.94C1235.96 426.465 1236.08 425.999 1236.27 425.56C1236.8 424.413 1237.57 423.391 1238.52 422.56C1241.24 420.277 1244.32 418.462 1247.63 417.19C1254.51 414.473 1261.63 412.401 1268.9 411C1276.32 409.46 1283.9 408.32 1290.52 407.5V407.76C1290.94 409.681 1291.86 411.457 1293.19 412.91C1294.55 414.399 1296.2 415.596 1298.03 416.43L1305.64 419.96C1306.95 420.558 1308.38 420.868 1309.83 420.868C1311.27 420.868 1312.7 420.558 1314.01 419.96L1321.62 416.43C1323.46 415.596 1325.1 414.399 1326.46 412.91C1327.79 411.459 1328.71 409.682 1329.13 407.76C1329.16 407.598 1329.18 407.434 1329.19 407.27C1334.63 407.89 1340.73 408.71 1346.85 409.78C1351.69 410.63 1356.58 411.64 1361.11 412.78C1364.33 413.603 1367.5 414.587 1370.62 415.73C1374.26 416.961 1377.68 418.771 1380.75 421.09C1381.7 421.84 1382.51 422.755 1383.13 423.79C1383.57 424.511 1383.81 425.336 1383.83 426.18V444.61H1252.81C1251.92 444.618 1251.06 444.971 1250.42 445.594C1249.79 446.217 1249.41 447.063 1249.38 447.955C1249.35 448.847 1249.67 449.716 1250.27 450.38C1250.86 451.044 1251.69 451.453 1252.58 451.52H1387.23C1388.15 451.52 1389.03 451.156 1389.68 450.507C1390.33 449.858 1390.69 448.978 1390.69 448.06V426.71C1390.69 426.58 1390.7 426.44 1390.7 426.31ZM1357.7 331.85V338.07C1357.71 339.082 1357.48 340.082 1357.01 340.98C1356.16 342.538 1354.87 343.808 1353.3 344.63C1352.31 345.17 1351.25 345.57 1350.15 345.82V324.12C1350.39 324.18 1350.64 324.22 1350.84 324.29C1351.23 324.402 1351.61 324.536 1351.98 324.69V324.69C1353 325.088 1353.94 325.641 1354.79 326.33C1355.67 327.034 1356.4 327.912 1356.93 328.91C1357.41 329.815 1357.66 330.826 1357.65 331.85H1357.7ZM1275.27 294.61C1277.3 289.115 1280.89 284.328 1285.59 280.83C1290.03 277.691 1295.36 276.039 1300.8 276.11H1323.42C1327.06 276.137 1330.63 277.09 1333.79 278.88C1338.92 281.837 1343.14 286.143 1346 291.33C1349.01 296.529 1350.64 302.406 1350.76 308.41L1350.19 317.04H1350L1349.44 316.98L1348.75 316.91H1346.65C1346.03 316.858 1345.4 316.974 1344.84 317.247C1344.28 317.52 1343.8 317.939 1343.46 318.46C1341.88 320.905 1340.45 323.443 1339.17 326.06C1333.65 324.519 1328.32 322.379 1323.27 319.68C1316.98 316.297 1311.2 312.027 1306.12 307C1305.51 306.417 1304.72 306.074 1303.88 306.036C1303.03 305.999 1302.21 306.269 1301.55 306.796C1300.9 307.323 1300.46 308.071 1300.31 308.9C1300.17 309.729 1300.33 310.582 1300.77 311.3L1309.87 325.75L1309.05 325.44L1308.72 325.31L1307.72 324.9L1307.13 324.66L1305.65 324.03L1305.12 323.8L1303.59 323.11L1303.13 322.88L1301.53 322.12L1301.15 321.94L1299.47 321.09L1299.19 320.95L1297.42 320.03L1297.25 319.94L1295.38 318.94C1294.05 318.25 1292.75 317.47 1291.45 316.73C1286.27 313.73 1281.45 310.78 1277.45 308.44C1276.65 307.99 1275.71 307.875 1274.82 308.121C1273.94 308.366 1273.19 308.952 1272.74 309.75C1272.6 309.989 1272.5 310.245 1272.42 310.51L1272.31 308.72C1272.61 303.894 1273.63 299.139 1275.32 294.61H1275.27ZM1265.85 341C1265.38 340.102 1265.15 339.102 1265.16 338.09V331.87C1265.15 330.858 1265.38 329.858 1265.85 328.96C1266.7 327.402 1267.99 326.132 1269.56 325.31C1269.93 325.11 1270.31 324.93 1270.71 324.76H1270.84C1271.45 324.522 1272.07 324.328 1272.71 324.18V345.9C1270.98 345.521 1269.36 344.752 1267.98 343.65C1267.09 342.926 1266.37 342.023 1265.85 341ZM1279.68 360.59V317.72C1281.96 319.08 1284.25 320.44 1286.54 321.78L1286.96 322.02L1289.51 323.48L1290.75 324.17L1291.89 324.8L1293.19 325.49L1293.82 325.83C1293.99 325.92 1294.18 326.01 1294.35 326.11L1295.79 326.86L1296.79 327.4L1299.08 328.53L1299.18 328.58L1300.05 328.98L1301.76 329.77C1302.1 329.93 1302.45 330.07 1302.76 330.23L1304.52 330.97L1305.14 331.23L1305.51 331.39L1305.9 331.54L1307.73 332.23L1307.97 332.32C1308.63 332.56 1309.28 332.8 1309.97 333.01L1310.43 333.16C1311.07 333.37 1311.72 333.57 1312.37 333.76H1312.44L1314.44 334.3L1314.88 334.4C1315.57 334.56 1316.23 334.71 1316.88 334.84C1317.54 334.972 1318.23 334.907 1318.85 334.653C1319.48 334.399 1320.02 333.966 1320.4 333.409C1320.78 332.852 1320.99 332.196 1321.01 331.52C1321.02 330.845 1320.83 330.181 1320.47 329.61L1317 324C1318 324.57 1318.93 325.12 1319.9 325.66C1326.3 329.072 1333.1 331.669 1340.15 333.39C1340.69 333.524 1341.26 333.525 1341.8 333.393C1342.34 333.26 1342.84 332.999 1343.26 332.63V360.55C1343.26 363.43 1342.69 366.282 1341.59 368.942C1340.49 371.603 1338.87 374.021 1336.84 376.057C1334.8 378.093 1332.38 379.709 1329.72 380.811C1327.06 381.913 1324.21 382.48 1321.33 382.48H1301.55C1295.75 382.464 1290.19 380.152 1286.1 376.05C1282 371.948 1279.69 366.389 1279.68 360.59V360.59ZM1321.3 408.39C1320.56 409.174 1319.67 409.805 1318.69 410.25L1311.11 413.79C1310.71 413.957 1310.28 414.042 1309.85 414.04C1309.41 414.047 1308.98 413.962 1308.58 413.79L1300.98 410.25C1299.99 409.812 1299.1 409.179 1298.36 408.39C1297.89 407.889 1297.55 407.287 1297.36 406.63L1296.67 389.02C1298.27 389.291 1299.89 389.429 1301.51 389.43H1321.26C1321.81 389.43 1322.36 389.43 1322.9 389.38L1322.21 406.62C1322.03 407.279 1321.68 407.884 1321.21 408.38L1321.3 408.39Z" fill="#323C46"/>
<path d="M1269 646.49V668H1114.14V646.49C1115.52 632.97 1150.36 626.55 1172.82 623.8H1175.53L1175.66 626.93C1176.2 629.49 1178.24 631.77 1181.26 633.16L1188.86 636.69C1189.72 637.076 1190.65 637.275 1191.59 637.275C1192.53 637.275 1193.46 637.076 1194.32 636.69L1201.92 633.16C1204.92 631.78 1206.98 629.47 1207.51 626.93L1207.65 623.62H1210.37C1233.45 626.15 1269.66 632.42 1269 646.49ZM1173.2 576.31C1173.77 581.264 1176.15 585.834 1179.87 589.151C1183.6 592.468 1188.41 594.301 1193.4 594.301C1198.38 594.301 1203.19 592.468 1206.92 589.151C1210.64 585.834 1213.02 581.264 1213.59 576.31C1213.64 575.86 1213.61 575.403 1213.48 574.967C1213.36 574.53 1213.15 574.122 1212.87 573.766C1212.59 573.41 1212.24 573.113 1211.85 572.891C1211.45 572.67 1211.02 572.528 1210.57 572.475C1210.11 572.422 1209.66 572.458 1209.22 572.581C1208.79 572.704 1208.38 572.912 1208.02 573.193C1207.67 573.474 1207.37 573.822 1207.15 574.218C1206.92 574.614 1206.78 575.05 1206.73 575.5C1206.34 578.763 1204.77 581.769 1202.31 583.95C1199.85 586.131 1196.68 587.335 1193.4 587.335C1190.11 587.335 1186.94 586.131 1184.48 583.95C1182.02 581.769 1180.45 578.763 1180.06 575.5C1179.95 574.59 1179.49 573.761 1178.77 573.193C1178.05 572.626 1177.13 572.368 1176.23 572.475C1175.32 572.582 1174.49 573.047 1173.92 573.766C1173.35 574.485 1173.09 575.4 1173.2 576.31V576.31Z" fill="#5AC8F5"/>
<path d="M1272.44 646.09C1272.44 644.869 1272.24 643.657 1271.85 642.5C1271.1 640.378 1269.86 638.462 1268.23 636.91C1266.74 635.475 1265.09 634.223 1263.31 633.18C1259.72 631.118 1255.93 629.442 1251.99 628.18C1245.2 626.019 1238.27 624.332 1231.25 623.13C1224.25 621.86 1217.25 620.92 1211.16 620.23L1211.65 608.02V607.92C1217.53 606.093 1222.67 602.432 1226.32 597.473C1229.97 592.515 1231.94 586.518 1231.94 580.36V572.65C1235.27 572.182 1238.41 570.828 1241.04 568.73C1242.65 567.422 1243.98 565.799 1244.94 563.96C1245.92 562.083 1246.43 559.997 1246.43 557.88V551.65C1246.43 549.533 1245.92 547.447 1244.94 545.57C1243.52 542.897 1241.36 540.687 1238.72 539.2L1239.41 528.56V528.33C1239.37 523.525 1238.48 518.764 1236.78 514.27C1234.3 507.469 1230.15 501.404 1224.7 496.64C1222.02 494.319 1218.98 492.451 1215.7 491.11C1212.37 489.738 1208.8 489.032 1205.2 489.03H1182.56C1176.79 488.971 1171.11 490.436 1166.09 493.275C1161.07 496.114 1156.88 500.227 1153.96 505.2C1150.15 511.43 1147.74 519.11 1146.96 528.08C1146.95 528.25 1146.95 528.42 1146.96 528.59L1147.65 539.24C1146.83 539.71 1146.05 540.241 1145.31 540.83C1143.7 542.138 1142.37 543.761 1141.41 545.6C1140.43 547.478 1139.92 549.563 1139.91 551.68V557.91C1139.92 560.027 1140.43 562.112 1141.41 563.99C1142.89 566.757 1145.15 569.028 1147.91 570.52C1149.94 571.618 1152.16 572.34 1154.45 572.65V580.37C1154.46 585.921 1156.06 591.353 1159.08 596.014C1162.09 600.675 1166.39 604.368 1171.45 606.65L1171.96 620.41C1166.43 621.1 1160.11 622 1153.74 623.18C1148.83 624.09 1143.88 625.18 1139.17 626.43C1135.76 627.34 1132.39 628.43 1129.09 629.65C1124.73 631.181 1120.62 633.359 1116.9 636.11C1115.3 637.354 1113.9 638.839 1112.75 640.51C1111.62 642.183 1110.91 644.104 1110.68 646.11C1110.67 646.226 1110.67 646.344 1110.68 646.46V668C1110.73 668.884 1111.11 669.716 1111.75 670.326C1112.4 670.935 1113.25 671.274 1114.13 671.274C1115.02 671.274 1115.87 670.935 1116.51 670.326C1117.16 669.716 1117.54 668.884 1117.59 668V646.72C1117.65 646.245 1117.77 645.781 1117.96 645.34C1118.49 644.193 1119.26 643.171 1120.21 642.34C1122.93 640.055 1126.01 638.239 1129.32 636.97C1136.21 634.262 1143.34 632.2 1150.61 630.81C1158.03 629.27 1165.61 628.13 1172.23 627.31V627.57C1172.65 629.492 1173.57 631.269 1174.9 632.72C1176.26 634.207 1177.91 635.404 1179.74 636.24L1187.35 639.77C1188.66 640.368 1190.09 640.678 1191.54 640.678C1192.98 640.678 1194.41 640.368 1195.72 639.77L1203.32 636.24C1205.16 635.408 1206.8 634.21 1208.16 632.72C1209.49 631.27 1210.42 629.493 1210.84 627.57C1210.87 627.408 1210.89 627.244 1210.9 627.08C1216.34 627.7 1222.44 628.52 1228.55 629.59C1233.39 630.44 1238.28 631.45 1242.82 632.59C1246.04 633.429 1249.21 634.43 1252.33 635.59C1255.97 636.821 1259.39 638.631 1262.46 640.95C1263.41 641.7 1264.22 642.615 1264.84 643.65C1265.28 644.37 1265.52 645.196 1265.53 646.04V664.47H1134.55C1133.66 664.476 1132.8 664.826 1132.16 665.449C1131.52 666.071 1131.14 666.917 1131.11 667.81C1131.08 668.702 1131.4 669.572 1131.99 670.238C1132.59 670.903 1133.42 671.312 1134.31 671.38H1269C1269.45 671.38 1269.9 671.29 1270.32 671.116C1270.74 670.942 1271.12 670.687 1271.44 670.366C1271.76 670.045 1272.02 669.663 1272.19 669.243C1272.36 668.824 1272.45 668.374 1272.45 667.92V646.49C1272.43 646.36 1272.44 646.22 1272.44 646.09ZM1239.44 551.63V557.85C1239.45 558.862 1239.21 559.86 1238.75 560.76C1237.9 562.316 1236.61 563.585 1235.04 564.41C1234.05 564.95 1232.99 565.35 1231.89 565.6V543.9C1232.13 543.96 1232.37 544 1232.58 544.07C1232.97 544.182 1233.35 544.316 1233.72 544.47C1234.73 544.87 1235.68 545.424 1236.53 546.11C1237.41 546.814 1238.14 547.692 1238.67 548.69C1239.15 549.595 1239.4 550.605 1239.39 551.63H1239.44ZM1157.01 514.39C1159.04 508.893 1162.63 504.105 1167.33 500.61C1171.77 497.471 1177.1 495.819 1182.54 495.89H1205.16C1208.8 495.917 1212.36 496.87 1215.53 498.66C1220.64 501.626 1224.84 505.931 1227.68 511.11C1230.69 516.309 1232.32 522.186 1232.44 528.19L1231.86 536.82H1231.65L1231.09 536.76L1230.4 536.69H1228.3C1227.68 536.635 1227.05 536.751 1226.49 537.024C1225.93 537.297 1225.45 537.717 1225.11 538.24C1223.53 540.685 1222.1 543.223 1220.82 545.84C1215.3 544.301 1209.97 542.161 1204.92 539.46C1198.63 536.061 1192.87 531.774 1187.81 526.73C1187.21 526.137 1186.4 525.785 1185.56 525.743C1184.71 525.7 1183.88 525.97 1183.22 526.5C1182.56 527.03 1182.12 527.784 1181.97 528.618C1181.83 529.453 1182 530.311 1182.45 531.03L1191.56 545.48L1190.74 545.17L1190.41 545.04L1189.41 544.63L1188.83 544.39L1187.35 543.76L1186.82 543.53L1185.29 542.84L1184.83 542.61L1183.22 541.85L1182.85 541.67L1181.17 540.82L1180.89 540.68L1179.12 539.76L1178.95 539.67L1177.08 538.67C1175.75 537.98 1174.44 537.2 1173.15 536.46C1167.97 533.46 1163.15 530.46 1159.15 528.17C1158.75 527.946 1158.32 527.802 1157.87 527.746C1157.42 527.691 1156.96 527.725 1156.52 527.847C1156.09 527.968 1155.68 528.175 1155.32 528.456C1154.96 528.736 1154.66 529.084 1154.44 529.48C1154.3 529.717 1154.19 529.973 1154.12 530.24L1154 528.45C1154.33 523.639 1155.36 518.902 1157.06 514.39H1157.01ZM1147.53 560.78C1147.07 559.88 1146.83 558.882 1146.84 557.87V551.65C1146.83 550.639 1147.07 549.64 1147.53 548.74C1148.38 547.183 1149.68 545.913 1151.25 545.09C1151.62 544.887 1152.01 544.703 1152.4 544.54H1152.53C1153.14 544.302 1153.76 544.108 1154.39 543.96V565.68C1152.67 565.299 1151.05 564.529 1149.67 563.43C1148.8 562.699 1148.09 561.797 1147.58 560.78H1147.53ZM1161.36 580.37V537.5L1168.23 541.56L1168.65 541.8L1171.2 543.26L1172.43 543.95L1173.57 544.58L1174.87 545.27L1175.51 545.61C1175.68 545.7 1175.87 545.79 1176.04 545.89L1177.48 546.64L1178.48 547.18L1180.77 548.31L1180.87 548.36L1181.74 548.76L1183.45 549.55C1183.79 549.71 1184.14 549.85 1184.45 550.01L1186.21 550.75L1186.83 551.01L1187.2 551.17L1187.59 551.32L1189.41 552.01L1189.66 552.1C1190.32 552.34 1190.97 552.58 1191.66 552.79L1192.11 552.94C1192.78 553.147 1193.44 553.347 1194.11 553.54H1194.18L1196.18 554.08L1196.62 554.18C1197.31 554.34 1197.96 554.49 1198.62 554.62C1199.28 554.752 1199.97 554.687 1200.59 554.433C1201.22 554.179 1201.76 553.746 1202.14 553.189C1202.52 552.632 1202.73 551.976 1202.75 551.3C1202.76 550.625 1202.57 549.961 1202.21 549.39L1198.68 543.8C1199.68 544.37 1200.62 544.92 1201.59 545.46C1207.99 548.871 1214.79 551.468 1221.83 553.19C1222.37 553.322 1222.94 553.321 1223.48 553.189C1224.03 553.057 1224.53 552.796 1224.95 552.43V580.35C1224.95 583.231 1224.38 586.083 1223.28 588.745C1222.18 591.406 1220.56 593.824 1218.52 595.86C1216.49 597.897 1214.07 599.512 1211.41 600.614C1208.74 601.715 1205.89 602.281 1203.01 602.28H1183.24C1177.45 602.251 1171.9 599.931 1167.81 595.826C1163.72 591.721 1161.42 586.165 1161.41 580.37H1161.36ZM1202.99 628.17C1202.25 628.956 1201.36 629.588 1200.37 630.03L1192.8 633.57C1191.99 633.903 1191.08 633.903 1190.27 633.57L1182.67 630.03C1181.68 629.588 1180.79 628.956 1180.05 628.17C1179.59 627.668 1179.24 627.066 1179.05 626.41L1178.36 608.8C1179.96 609.072 1181.58 609.209 1183.2 609.21H1203C1203.56 609.21 1204.1 609.21 1204.65 609.16L1204 626.4C1203.82 627.059 1203.47 627.664 1203 628.16L1202.99 628.17Z" fill="#323C46"/>
<path d="M1231.35 355.05H854.67C853.874 355.05 853.111 355.366 852.549 355.928C851.986 356.491 851.67 357.254 851.67 358.05C851.67 358.845 851.986 359.609 852.549 360.171C853.111 360.734 853.874 361.05 854.67 361.05H1231.35C1232.15 361.05 1232.91 360.734 1233.47 360.171C1234.03 359.609 1234.35 358.845 1234.35 358.05C1234.35 357.254 1234.03 356.491 1233.47 355.928C1232.91 355.366 1232.15 355.05 1231.35 355.05" fill="#B4BECD"/>
<path d="M1216.47 343.06L1231.47 358.06L1216.47 373.06C1215.94 373.629 1215.65 374.381 1215.67 375.158C1215.68 375.935 1215.99 376.677 1216.54 377.227C1217.09 377.776 1217.83 378.091 1218.61 378.105C1219.39 378.118 1220.14 377.83 1220.71 377.3L1237.83 360.18C1238.39 359.618 1238.71 358.855 1238.71 358.06C1238.71 357.265 1238.39 356.503 1237.83 355.94L1220.71 338.83C1220.14 338.3 1219.39 338.012 1218.61 338.025C1217.83 338.039 1217.09 338.354 1216.54 338.904C1215.99 339.453 1215.68 340.195 1215.67 340.972C1215.65 341.749 1215.94 342.501 1216.47 343.07V343.06Z" fill="#B4BECD"/>
<path d="M1111.91 580.46H1015.91C1003.44 580.46 991.49 575.508 982.676 566.694C973.862 557.88 968.91 545.925 968.91 533.46V183.46C968.91 170.995 973.862 159.04 982.676 150.226C991.49 141.412 1003.44 136.46 1015.91 136.46H1111.91C1112.71 136.46 1113.47 136.144 1114.03 135.581C1114.59 135.019 1114.91 134.256 1114.91 133.46C1114.91 132.664 1114.59 131.901 1114.03 131.339C1113.47 130.776 1112.71 130.46 1111.91 130.46H1015.91C1001.85 130.46 988.373 136.044 978.434 145.983C968.494 155.923 962.91 169.403 962.91 183.46V533.46C962.91 547.516 968.494 560.997 978.434 570.937C988.373 580.876 1001.85 586.46 1015.91 586.46H1111.91C1112.71 586.46 1113.47 586.144 1114.03 585.581C1114.59 585.019 1114.91 584.256 1114.91 583.46C1114.91 582.664 1114.59 581.901 1114.03 581.339C1113.47 580.776 1112.71 580.46 1111.91 580.46V580.46Z" fill="#B4BECD"/>
<path d="M1093.51 118.46L1108.51 133.46L1093.51 148.46C1092.98 149.029 1092.69 149.781 1092.71 150.558C1092.72 151.335 1093.03 152.077 1093.58 152.626C1094.13 153.176 1094.87 153.491 1095.65 153.505C1096.43 153.518 1097.18 153.23 1097.75 152.7L1114.86 135.59C1115.42 135.027 1115.74 134.265 1115.74 133.47C1115.74 132.675 1115.42 131.912 1114.86 131.35L1097.75 114.23C1097.18 113.7 1096.43 113.412 1095.65 113.425C1094.87 113.439 1094.13 113.754 1093.58 114.303C1093.03 114.853 1092.72 115.595 1092.71 116.372C1092.69 117.149 1092.98 117.901 1093.51 118.47V118.46Z" fill="#B4BECD"/>
<path d="M1093.51 568.46L1108.51 583.46L1093.51 598.46C1092.98 599.029 1092.69 599.781 1092.71 600.558C1092.72 601.335 1093.03 602.077 1093.58 602.626C1094.13 603.176 1094.87 603.491 1095.65 603.505C1096.43 603.518 1097.18 603.23 1097.75 602.7L1114.86 585.59C1115.42 585.028 1115.74 584.265 1115.74 583.47C1115.74 582.675 1115.42 581.912 1114.86 581.35L1097.75 564.23C1097.18 563.7 1096.43 563.412 1095.65 563.425C1094.87 563.439 1094.13 563.754 1093.58 564.304C1093.03 564.853 1092.72 565.595 1092.71 566.372C1092.69 567.149 1092.98 567.901 1093.51 568.47V568.46Z" fill="#B4BECD"/>
<path d="M269.023 285V261.727H273.943V271.33H283.932V261.727H288.841V285H283.932V275.386H273.943V285H269.023ZM292.807 285V267.545H297.648V285H292.807ZM295.239 265.295C294.519 265.295 293.902 265.057 293.386 264.58C292.879 264.095 292.625 263.515 292.625 262.841C292.625 262.174 292.879 261.602 293.386 261.125C293.902 260.64 294.519 260.398 295.239 260.398C295.958 260.398 296.572 260.64 297.08 261.125C297.595 261.602 297.852 262.174 297.852 262.841C297.852 263.515 297.595 264.095 297.08 264.58C296.572 265.057 295.958 265.295 295.239 265.295ZM309.389 291.909C307.821 291.909 306.476 291.693 305.355 291.261C304.241 290.837 303.355 290.258 302.696 289.523C302.037 288.788 301.609 287.962 301.412 287.045L305.889 286.443C306.026 286.792 306.241 287.117 306.537 287.42C306.832 287.723 307.223 287.966 307.707 288.148C308.2 288.337 308.798 288.432 309.503 288.432C310.556 288.432 311.423 288.174 312.105 287.659C312.795 287.152 313.139 286.299 313.139 285.102V281.909H312.935C312.723 282.394 312.404 282.852 311.98 283.284C311.556 283.716 311.01 284.068 310.344 284.341C309.677 284.614 308.882 284.75 307.957 284.75C306.647 284.75 305.454 284.447 304.378 283.841C303.31 283.227 302.457 282.292 301.821 281.034C301.192 279.769 300.878 278.17 300.878 276.239C300.878 274.261 301.2 272.61 301.844 271.284C302.488 269.958 303.344 268.966 304.412 268.307C305.488 267.648 306.666 267.318 307.946 267.318C308.923 267.318 309.741 267.485 310.401 267.818C311.06 268.144 311.59 268.553 311.991 269.045C312.401 269.53 312.715 270.008 312.935 270.477H313.116V267.545H317.923V285.17C317.923 286.655 317.56 287.898 316.832 288.898C316.105 289.898 315.098 290.648 313.81 291.148C312.529 291.655 311.056 291.909 309.389 291.909ZM309.491 281.114C310.272 281.114 310.931 280.92 311.469 280.534C312.014 280.14 312.431 279.58 312.719 278.852C313.014 278.117 313.162 277.239 313.162 276.216C313.162 275.193 313.018 274.307 312.73 273.557C312.442 272.799 312.026 272.212 311.48 271.795C310.935 271.379 310.272 271.17 309.491 271.17C308.696 271.17 308.026 271.386 307.48 271.818C306.935 272.242 306.522 272.833 306.241 273.591C305.961 274.348 305.821 275.223 305.821 276.216C305.821 277.223 305.961 278.095 306.241 278.83C306.529 279.557 306.942 280.121 307.48 280.523C308.026 280.917 308.696 281.114 309.491 281.114ZM326.616 274.909V285H321.776V261.727H326.48V270.625H326.685C327.079 269.595 327.715 268.788 328.594 268.205C329.473 267.614 330.575 267.318 331.901 267.318C333.113 267.318 334.17 267.583 335.071 268.114C335.98 268.636 336.685 269.39 337.185 270.375C337.692 271.352 337.942 272.523 337.935 273.886V285H333.094V274.75C333.101 273.674 332.829 272.837 332.276 272.239C331.73 271.64 330.965 271.341 329.98 271.341C329.321 271.341 328.738 271.481 328.23 271.761C327.73 272.042 327.336 272.451 327.048 272.989C326.768 273.519 326.624 274.159 326.616 274.909ZM352.619 273.523V277.364H342.006V273.523H352.619ZM369.46 268.42C369.369 267.504 368.979 266.792 368.29 266.284C367.6 265.777 366.665 265.523 365.483 265.523C364.68 265.523 364.002 265.636 363.449 265.864C362.896 266.083 362.472 266.39 362.176 266.784C361.888 267.178 361.744 267.625 361.744 268.125C361.729 268.542 361.816 268.905 362.006 269.216C362.203 269.527 362.472 269.795 362.812 270.023C363.153 270.242 363.547 270.436 363.994 270.602C364.441 270.761 364.919 270.898 365.426 271.011L367.517 271.511C368.532 271.739 369.464 272.042 370.312 272.42C371.161 272.799 371.896 273.265 372.517 273.818C373.138 274.371 373.619 275.023 373.96 275.773C374.309 276.523 374.487 277.383 374.494 278.352C374.487 279.777 374.123 281.011 373.403 282.057C372.691 283.095 371.661 283.902 370.312 284.477C368.972 285.045 367.354 285.33 365.46 285.33C363.581 285.33 361.945 285.042 360.551 284.466C359.165 283.89 358.081 283.038 357.301 281.909C356.528 280.773 356.123 279.367 356.085 277.693H360.847C360.9 278.473 361.123 279.125 361.517 279.648C361.919 280.163 362.453 280.553 363.119 280.818C363.794 281.076 364.555 281.205 365.403 281.205C366.237 281.205 366.96 281.083 367.574 280.841C368.195 280.598 368.676 280.261 369.017 279.83C369.358 279.398 369.528 278.902 369.528 278.341C369.528 277.818 369.373 277.379 369.062 277.023C368.759 276.667 368.313 276.364 367.722 276.114C367.138 275.864 366.422 275.636 365.574 275.432L363.04 274.795C361.078 274.318 359.528 273.572 358.392 272.557C357.256 271.542 356.691 270.174 356.699 268.455C356.691 267.045 357.066 265.814 357.824 264.761C358.589 263.708 359.638 262.886 360.972 262.295C362.305 261.705 363.82 261.409 365.517 261.409C367.244 261.409 368.752 261.705 370.04 262.295C371.335 262.886 372.343 263.708 373.062 264.761C373.782 265.814 374.153 267.034 374.176 268.42H369.46ZM377.713 291.545V267.545H382.486V270.477H382.702C382.914 270.008 383.221 269.53 383.622 269.045C384.031 268.553 384.562 268.144 385.213 267.818C385.872 267.485 386.69 267.318 387.668 267.318C388.94 267.318 390.115 267.652 391.19 268.318C392.266 268.977 393.126 269.973 393.77 271.307C394.414 272.633 394.736 274.295 394.736 276.295C394.736 278.242 394.421 279.886 393.793 281.227C393.171 282.561 392.323 283.572 391.247 284.261C390.179 284.943 388.982 285.284 387.656 285.284C386.717 285.284 385.918 285.129 385.259 284.818C384.607 284.508 384.073 284.117 383.656 283.648C383.24 283.17 382.921 282.689 382.702 282.205H382.554V291.545H377.713ZM382.452 276.273C382.452 277.311 382.596 278.216 382.884 278.989C383.171 279.761 383.588 280.364 384.134 280.795C384.679 281.22 385.342 281.432 386.122 281.432C386.91 281.432 387.577 281.216 388.122 280.784C388.668 280.345 389.08 279.739 389.361 278.966C389.649 278.186 389.793 277.288 389.793 276.273C389.793 275.265 389.652 274.379 389.372 273.614C389.092 272.848 388.679 272.25 388.134 271.818C387.588 271.386 386.918 271.17 386.122 271.17C385.334 271.17 384.668 271.379 384.122 271.795C383.584 272.212 383.171 272.803 382.884 273.568C382.596 274.333 382.452 275.235 382.452 276.273ZM405.918 285.341C404.122 285.341 402.577 284.977 401.281 284.25C399.993 283.515 399.001 282.477 398.304 281.136C397.607 279.788 397.259 278.193 397.259 276.352C397.259 274.557 397.607 272.981 398.304 271.625C399.001 270.269 399.982 269.212 401.247 268.455C402.52 267.697 404.012 267.318 405.724 267.318C406.876 267.318 407.948 267.504 408.94 267.875C409.94 268.239 410.812 268.788 411.554 269.523C412.304 270.258 412.887 271.182 413.304 272.295C413.721 273.402 413.929 274.697 413.929 276.182V277.511H399.19V274.511H409.372C409.372 273.814 409.221 273.197 408.918 272.659C408.615 272.121 408.194 271.701 407.656 271.398C407.126 271.087 406.509 270.932 405.804 270.932C405.069 270.932 404.418 271.102 403.849 271.443C403.289 271.777 402.849 272.227 402.531 272.795C402.213 273.356 402.05 273.981 402.043 274.67V277.523C402.043 278.386 402.202 279.133 402.52 279.761C402.846 280.39 403.304 280.875 403.895 281.216C404.486 281.557 405.187 281.727 405.997 281.727C406.535 281.727 407.027 281.652 407.474 281.5C407.921 281.348 408.304 281.121 408.622 280.818C408.94 280.515 409.183 280.144 409.349 279.705L413.827 280C413.599 281.076 413.134 282.015 412.429 282.818C411.732 283.614 410.83 284.235 409.724 284.682C408.626 285.121 407.357 285.341 405.918 285.341ZM425.043 285.341C423.247 285.341 421.702 284.977 420.406 284.25C419.118 283.515 418.126 282.477 417.429 281.136C416.732 279.788 416.384 278.193 416.384 276.352C416.384 274.557 416.732 272.981 417.429 271.625C418.126 270.269 419.107 269.212 420.372 268.455C421.645 267.697 423.137 267.318 424.849 267.318C426.001 267.318 427.073 267.504 428.065 267.875C429.065 268.239 429.937 268.788 430.679 269.523C431.429 270.258 432.012 271.182 432.429 272.295C432.846 273.402 433.054 274.697 433.054 276.182V277.511H418.315V274.511H428.497C428.497 273.814 428.346 273.197 428.043 272.659C427.74 272.121 427.319 271.701 426.781 271.398C426.251 271.087 425.634 270.932 424.929 270.932C424.194 270.932 423.543 271.102 422.974 271.443C422.414 271.777 421.974 272.227 421.656 272.795C421.338 273.356 421.175 273.981 421.168 274.67V277.523C421.168 278.386 421.327 279.133 421.645 279.761C421.971 280.39 422.429 280.875 423.02 281.216C423.611 281.557 424.312 281.727 425.122 281.727C425.66 281.727 426.152 281.652 426.599 281.5C427.046 281.348 427.429 281.121 427.747 280.818C428.065 280.515 428.308 280.144 428.474 279.705L432.952 280C432.724 281.076 432.259 282.015 431.554 282.818C430.857 283.614 429.955 284.235 428.849 284.682C427.751 285.121 426.482 285.341 425.043 285.341ZM442.645 285.284C441.319 285.284 440.118 284.943 439.043 284.261C437.974 283.572 437.126 282.561 436.497 281.227C435.876 279.886 435.565 278.242 435.565 276.295C435.565 274.295 435.887 272.633 436.531 271.307C437.175 269.973 438.031 268.977 439.099 268.318C440.175 267.652 441.353 267.318 442.634 267.318C443.611 267.318 444.425 267.485 445.077 267.818C445.736 268.144 446.266 268.553 446.668 269.045C447.077 269.53 447.387 270.008 447.599 270.477H447.747V261.727H452.577V285H447.804V282.205H447.599C447.372 282.689 447.05 283.17 446.634 283.648C446.224 284.117 445.69 284.508 445.031 284.818C444.38 285.129 443.584 285.284 442.645 285.284ZM444.179 281.432C444.959 281.432 445.618 281.22 446.156 280.795C446.702 280.364 447.118 279.761 447.406 278.989C447.702 278.216 447.849 277.311 447.849 276.273C447.849 275.235 447.705 274.333 447.418 273.568C447.13 272.803 446.713 272.212 446.168 271.795C445.622 271.379 444.959 271.17 444.179 271.17C443.384 271.17 442.713 271.386 442.168 271.818C441.622 272.25 441.209 272.848 440.929 273.614C440.649 274.379 440.509 275.265 440.509 276.273C440.509 277.288 440.649 278.186 440.929 278.966C441.217 279.739 441.63 280.345 442.168 280.784C442.713 281.216 443.384 281.432 444.179 281.432ZM268.136 305.784V301.727H287.25V305.784H280.125V325H275.261V305.784H268.136ZM295.148 314.909V325H290.307V301.727H295.011V310.625H295.216C295.61 309.595 296.246 308.788 297.125 308.205C298.004 307.614 299.106 307.318 300.432 307.318C301.644 307.318 302.701 307.583 303.602 308.114C304.511 308.636 305.216 309.39 305.716 310.375C306.223 311.352 306.473 312.523 306.466 313.886V325H301.625V314.75C301.633 313.674 301.36 312.837 300.807 312.239C300.261 311.64 299.496 311.341 298.511 311.341C297.852 311.341 297.269 311.481 296.761 311.761C296.261 312.042 295.867 312.451 295.58 312.989C295.299 313.519 295.155 314.159 295.148 314.909ZM310.276 325V307.545H314.969V310.591H315.151C315.469 309.508 316.003 308.689 316.753 308.136C317.503 307.576 318.366 307.295 319.344 307.295C319.586 307.295 319.848 307.311 320.128 307.341C320.408 307.371 320.654 307.413 320.866 307.466V311.761C320.639 311.693 320.325 311.633 319.923 311.58C319.522 311.527 319.154 311.5 318.821 311.5C318.109 311.5 317.473 311.655 316.912 311.966C316.359 312.269 315.92 312.693 315.594 313.239C315.276 313.784 315.116 314.413 315.116 315.125V325H310.276ZM330.443 325.341C328.678 325.341 327.152 324.966 325.864 324.216C324.583 323.458 323.595 322.405 322.898 321.057C322.201 319.701 321.852 318.129 321.852 316.341C321.852 314.538 322.201 312.962 322.898 311.614C323.595 310.258 324.583 309.205 325.864 308.455C327.152 307.697 328.678 307.318 330.443 307.318C332.208 307.318 333.731 307.697 335.011 308.455C336.299 309.205 337.292 310.258 337.989 311.614C338.686 312.962 339.034 314.538 339.034 316.341C339.034 318.129 338.686 319.701 337.989 321.057C337.292 322.405 336.299 323.458 335.011 324.216C333.731 324.966 332.208 325.341 330.443 325.341ZM330.466 321.591C331.269 321.591 331.939 321.364 332.477 320.909C333.015 320.447 333.42 319.818 333.693 319.023C333.973 318.227 334.114 317.322 334.114 316.307C334.114 315.292 333.973 314.386 333.693 313.591C333.42 312.795 333.015 312.167 332.477 311.705C331.939 311.242 331.269 311.011 330.466 311.011C329.655 311.011 328.973 311.242 328.42 311.705C327.875 312.167 327.462 312.795 327.182 313.591C326.909 314.386 326.773 315.292 326.773 316.307C326.773 317.322 326.909 318.227 327.182 319.023C327.462 319.818 327.875 320.447 328.42 320.909C328.973 321.364 329.655 321.591 330.466 321.591ZM353.375 317.568V307.545H358.216V325H353.568V321.83H353.386C352.992 322.852 352.337 323.674 351.42 324.295C350.511 324.917 349.402 325.227 348.091 325.227C346.924 325.227 345.898 324.962 345.011 324.432C344.125 323.902 343.432 323.148 342.932 322.17C342.439 321.193 342.189 320.023 342.182 318.659V307.545H347.023V317.795C347.03 318.826 347.307 319.64 347.852 320.239C348.398 320.837 349.129 321.136 350.045 321.136C350.629 321.136 351.174 321.004 351.682 320.739C352.189 320.466 352.598 320.064 352.909 319.534C353.227 319.004 353.383 318.348 353.375 317.568ZM369.952 331.909C368.384 331.909 367.039 331.693 365.918 331.261C364.804 330.837 363.918 330.258 363.259 329.523C362.599 328.788 362.171 327.962 361.974 327.045L366.452 326.443C366.588 326.792 366.804 327.117 367.099 327.42C367.395 327.723 367.785 327.966 368.27 328.148C368.762 328.337 369.361 328.432 370.065 328.432C371.118 328.432 371.986 328.174 372.668 327.659C373.357 327.152 373.702 326.299 373.702 325.102V321.909H373.497C373.285 322.394 372.967 322.852 372.543 323.284C372.118 323.716 371.573 324.068 370.906 324.341C370.24 324.614 369.444 324.75 368.52 324.75C367.209 324.75 366.016 324.447 364.94 323.841C363.872 323.227 363.02 322.292 362.384 321.034C361.755 319.769 361.44 318.17 361.44 316.239C361.44 314.261 361.762 312.61 362.406 311.284C363.05 309.958 363.906 308.966 364.974 308.307C366.05 307.648 367.228 307.318 368.509 307.318C369.486 307.318 370.304 307.485 370.963 307.818C371.622 308.144 372.152 308.553 372.554 309.045C372.963 309.53 373.277 310.008 373.497 310.477H373.679V307.545H378.486V325.17C378.486 326.655 378.122 327.898 377.395 328.898C376.668 329.898 375.66 330.648 374.372 331.148C373.092 331.655 371.618 331.909 369.952 331.909ZM370.054 321.114C370.834 321.114 371.493 320.92 372.031 320.534C372.577 320.14 372.993 319.58 373.281 318.852C373.577 318.117 373.724 317.239 373.724 316.216C373.724 315.193 373.58 314.307 373.293 313.557C373.005 312.799 372.588 312.212 372.043 311.795C371.497 311.379 370.834 311.17 370.054 311.17C369.259 311.17 368.588 311.386 368.043 311.818C367.497 312.242 367.084 312.833 366.804 313.591C366.524 314.348 366.384 315.223 366.384 316.216C366.384 317.223 366.524 318.095 366.804 318.83C367.092 319.557 367.505 320.121 368.043 320.523C368.588 320.917 369.259 321.114 370.054 321.114ZM387.179 314.909V325H382.338V301.727H387.043V310.625H387.247C387.641 309.595 388.277 308.788 389.156 308.205C390.035 307.614 391.137 307.318 392.463 307.318C393.675 307.318 394.732 307.583 395.634 308.114C396.543 308.636 397.247 309.39 397.747 310.375C398.255 311.352 398.505 312.523 398.497 313.886V325H393.656V314.75C393.664 313.674 393.391 312.837 392.838 312.239C392.293 311.64 391.527 311.341 390.543 311.341C389.884 311.341 389.3 311.481 388.793 311.761C388.293 312.042 387.899 312.451 387.611 312.989C387.33 313.519 387.187 314.159 387.179 314.909ZM402.307 331.545V307.545H407.08V310.477H407.295C407.508 310.008 407.814 309.53 408.216 309.045C408.625 308.553 409.155 308.144 409.807 307.818C410.466 307.485 411.284 307.318 412.261 307.318C413.534 307.318 414.708 307.652 415.784 308.318C416.86 308.977 417.72 309.973 418.364 311.307C419.008 312.633 419.33 314.295 419.33 316.295C419.33 318.242 419.015 319.886 418.386 321.227C417.765 322.561 416.917 323.572 415.841 324.261C414.773 324.943 413.576 325.284 412.25 325.284C411.311 325.284 410.511 325.129 409.852 324.818C409.201 324.508 408.667 324.117 408.25 323.648C407.833 323.17 407.515 322.689 407.295 322.205H407.148V331.545H402.307ZM407.045 316.273C407.045 317.311 407.189 318.216 407.477 318.989C407.765 319.761 408.182 320.364 408.727 320.795C409.273 321.22 409.936 321.432 410.716 321.432C411.504 321.432 412.17 321.216 412.716 320.784C413.261 320.345 413.674 319.739 413.955 318.966C414.242 318.186 414.386 317.288 414.386 316.273C414.386 315.265 414.246 314.379 413.966 313.614C413.686 312.848 413.273 312.25 412.727 311.818C412.182 311.386 411.511 311.17 410.716 311.17C409.928 311.17 409.261 311.379 408.716 311.795C408.178 312.212 407.765 312.803 407.477 313.568C407.189 314.333 407.045 315.235 407.045 316.273ZM433.75 317.568V307.545H438.591V325H433.943V321.83H433.761C433.367 322.852 432.712 323.674 431.795 324.295C430.886 324.917 429.777 325.227 428.466 325.227C427.299 325.227 426.273 324.962 425.386 324.432C424.5 323.902 423.807 323.148 423.307 322.17C422.814 321.193 422.564 320.023 422.557 318.659V307.545H427.398V317.795C427.405 318.826 427.682 319.64 428.227 320.239C428.773 320.837 429.504 321.136 430.42 321.136C431.004 321.136 431.549 321.004 432.057 320.739C432.564 320.466 432.973 320.064 433.284 319.534C433.602 319.004 433.758 318.348 433.75 317.568ZM451.747 307.545V311.182H441.236V307.545H451.747ZM443.622 303.364H448.463V319.636C448.463 320.083 448.531 320.432 448.668 320.682C448.804 320.924 448.993 321.095 449.236 321.193C449.486 321.292 449.774 321.341 450.099 321.341C450.327 321.341 450.554 321.322 450.781 321.284C451.009 321.239 451.183 321.205 451.304 321.182L452.065 324.784C451.823 324.86 451.482 324.947 451.043 325.045C450.603 325.152 450.069 325.216 449.44 325.239C448.274 325.284 447.251 325.129 446.372 324.773C445.501 324.417 444.823 323.864 444.338 323.114C443.853 322.364 443.615 321.417 443.622 320.273V303.364Z" fill="black"/>
</svg>
