<svg xmlns="http://www.w3.org/2000/svg" viewBox="0 0 1400 700"><defs><style>.a{fill:#393f45;}.b{fill:#5ac8f5;}.c{fill:#fff;}.d{fill:#b4becd;}.e{fill:#323c46;}</style></defs><path class="a" d="M487.53,170.48a247.4,247.4,0,0,1,80.75,13.74c22.7,7.94,42.68,18.74,58,31.31V398.24c0,28.84-7.81,49.3-26.09,68.44-17.7,18.51-44.72,35-78.93,55.88-10.73,6.55-21.8,13.31-33.72,20.8-11.93-7.49-23-14.25-33.73-20.8-34.2-20.88-61.22-37.37-78.92-55.88-18.29-19.14-26.1-39.6-26.1-68.44V215.52c15.31-12.56,35.3-23.36,58-31.3a247.42,247.42,0,0,1,80.76-13.74m0-6c-58.93,0-113.46,21.46-144.75,48.25V398.24c0,74,51.53,93.34,144.75,152.22,93.21-58.88,144.74-78.22,144.74-152.22V212.73C601,185.94,546.45,164.48,487.53,164.48Z"/><path class="b" d="M82,334.09v17.69A3.46,3.46,0,0,1,75,352V334.09l-3.5,3.46a3.46,3.46,0,0,1-4.89-4.89l9.4-9.41a3.46,3.46,0,0,1,4.89,0l9.41,9.46a3.46,3.46,0,0,1-4.89,4.89Zm31.71,5.84a3.46,3.46,0,0,0,0,4.89l9.4,9.41a3.46,3.46,0,0,0,4.89,0l9.41-9.41a3.46,3.46,0,1,0-4.74-5l-.15.15-3.5,3.51V325.72a3.46,3.46,0,1,0-6.92-.16v17.86l-3.5-3.51a3.46,3.46,0,0,0-4.89,0Zm38.09-67.25h-65c-2.26,0-4.11,2.71-4.11,6.05v31.12c0,3.34,1.85,2.59,4.11,2.59h65c2.27,0,4.11-2.71,4.11-6.05V278.73c0-3.36-1.84-6.07-4.11-6.07Zm0,92.65h-65c-2.26,0-4.11-.75-4.11,2.6V399c0,3.34,1.85,6,4.11,6h65c2.27,0,4.11-2.71,4.11-6V371.38c0-3.36-1.84-6.07-4.11-6.07Z"/><path class="c" d="M123,292.54a8.3,8.3,0,0,1,16.59-.26v.26a8.3,8.3,0,0,1-16.59,0Zm8.3,84.36a8.28,8.28,0,1,0,5.87,2.42,8.29,8.29,0,0,0-5.87-2.42Z"/><path class="a" d="M171.07,269.78a97.69,97.69,0,1,0,28.61,69.08,97.7,97.7,0,0,0-28.61-69.08ZM166.18,403a90.75,90.75,0,1,1,26.59-64.18A90.76,90.76,0,0,1,166.18,403Zm-23.11-110.5a11.76,11.76,0,1,0-11.75,11.75A11.76,11.76,0,0,0,143.07,292.54Zm-16.59,0a4.84,4.84,0,1,1,9.68,0h0a4.84,4.84,0,0,1-9.68,0Zm-57.29-5.85v11.69a3.46,3.46,0,1,1-6.91,0V286.69a3.46,3.46,0,1,1,6.91,0ZM156.54,272a9.5,9.5,0,0,1,2.77,6.73v27.66a9.51,9.51,0,0,1-9.5,9.51H54.19a9.52,9.52,0,0,1-9.52-9.51V278.71a9.51,9.51,0,0,1,9.52-9.51h11.5a3.46,3.46,0,1,1,.17,6.91H54.19a2.6,2.6,0,0,0-2.6,2.6v27.66a2.59,2.59,0,0,0,2.6,2.59h95.62a2.61,2.61,0,0,0,2.6-2.59V278.71a2.61,2.61,0,0,0-2.6-2.6h-61a2.6,2.6,0,0,0-2.6,2.6h0v19.36a3.46,3.46,0,0,1-6.92.17V278.71a9.51,9.51,0,0,1,9.52-9.51h61.05A9.53,9.53,0,0,1,156.54,272ZM143.07,385.19A11.76,11.76,0,1,0,131.32,397,11.75,11.75,0,0,0,143.07,385.19Zm-16.59,0a4.84,4.84,0,0,1,9.68,0h0a4.84,4.84,0,1,1-9.68,0Zm-57.29-5.85V391a3.46,3.46,0,0,1-6.91,0v-11.7a3.46,3.46,0,0,1,6.91,0Zm87.38-14.7a9.41,9.41,0,0,1,2.76,6.73V399a9.49,9.49,0,0,1-9.49,9.51H88.77A9.51,9.51,0,0,1,79.26,399V379.66a3.46,3.46,0,1,1,6.91-.16V399a2.59,2.59,0,0,0,2.6,2.6h61.06a2.61,2.61,0,0,0,2.59-2.6V371.37a2.59,2.59,0,0,0-2.59-2.6H54.19a2.59,2.59,0,0,0-2.6,2.6V399a2.59,2.59,0,0,0,2.6,2.59h11.5a3.46,3.46,0,1,1,0,6.92H54.19A9.52,9.52,0,0,1,44.67,399V371.37a9.51,9.51,0,0,1,9.51-9.52h95.63a9.5,9.5,0,0,1,6.73,2.79Z"/><path class="b" d="M584.43,291.88l-97,46.88-93.83-45.5,88.51-44.32a11,11,0,0,1,10.92,0Z"/><path class="a" d="M584.92,290.22a3.57,3.57,0,0,0-3.32-.21l-93.83,45.15-89.43-42.43a7.81,7.81,0,0,1,.82-.55l84.39-40.13.28-.14a7.57,7.57,0,0,1,7.46,0l.28.14,67.9,31.88a3.52,3.52,0,0,0,4.56-1.66,3.43,3.43,0,0,0-1.66-4.57l-67.75-31.8a14.42,14.42,0,0,0-14.13,0L396,286.07l-.21.14a14.34,14.34,0,0,0-4.87,4.64l-.11.06a3.27,3.27,0,0,0-1.52,3.25v.09a14.43,14.43,0,0,0-.7,4.41v80.41a14.43,14.43,0,0,0,7.19,12.45l.21.13,84.47,40.17a14.44,14.44,0,0,0,14.15,0L579,391.65l.27-.13a14.43,14.43,0,0,0,7.2-12.45V293.12A3.5,3.5,0,0,0,584.92,290.22Zm-5.19,88.85a7.42,7.42,0,0,1-3.7,6.41L491.64,425.6l-.28.14a7.52,7.52,0,0,1-7.46,0l-.28-.14-84.46-40.12a7.5,7.5,0,0,1-3.7-6.41V298.9l90.93,43.18a3.24,3.24,0,0,0,3,0l90.37-43.42Z"/><path class="b" d="M905.44,324.13a22,22,0,1,0-35.13,17.56v24.13a8.81,8.81,0,0,0,8.79,8.79h8.78a8.8,8.8,0,0,0,8.78-8.79V341.69A21.93,21.93,0,0,0,905.44,324.13Z"/><path class="a" d="M947.13,269.78H935.86V254.09a52.48,52.48,0,1,0-105,0v15.69H819.63a19.91,19.91,0,0,0-13.9,5.74,19.65,19.65,0,0,0-5.73,13.9v98A19.55,19.55,0,0,0,819.56,407H947a19.87,19.87,0,0,0,13.89-5.74,19.33,19.33,0,0,0,5.74-13.9V289.42a19.85,19.85,0,0,0-5.74-13.9A19.18,19.18,0,0,0,947.13,269.78ZM837.89,254.09a45.57,45.57,0,1,1,91.13,0v15.69H837.89Zm122,133.31a12.66,12.66,0,0,1-12.66,12.65H819.77a12.76,12.76,0,0,1-12.72-12.65v-98a12.66,12.66,0,0,1,12.65-12.65H947.13a12.72,12.72,0,0,1,12.73,12.65Zm-76.41-88.71a25.42,25.42,0,0,0-16.66,44.66v22.47A12.26,12.26,0,0,0,879,378.06h8.78a12.27,12.27,0,0,0,12.24-12.24V343.35a25.91,25.91,0,0,0,6-7.67,25.45,25.45,0,0,0-22.61-37ZM900,332.57a19.31,19.31,0,0,1-5.4,6.43,3.33,3.33,0,0,0-1.38,2.76v24.13a5.33,5.33,0,0,1-5.32,5.33H879.1a5.33,5.33,0,0,1-5.33-5.33v-24.2a3.3,3.3,0,0,0-1.38-2.76A18.51,18.51,0,1,1,900,332.57Z"/><path class="d" d="M776.5,319.81H650.82a3,3,0,0,0,0,6H776.5a3,3,0,0,0,0-6"/><path class="d" d="M761.62,307.81l15,15-15,15a3,3,0,0,0,4.24,4.24L783,324.93a3,3,0,0,0,0-4.24l-17.12-17.12a3,3,0,0,0-4.24,4.24Z"/><path class="d" d="M655.17,359.81H780.85a3,3,0,0,0,0-6H655.17a3,3,0,0,0,0,6"/><path class="d" d="M670.05,371.8l-15-15,15-15a3,3,0,0,0-4.24-4.24L648.7,354.69a3,3,0,0,0,0,4.24L665.81,376a3,3,0,0,0,4.24-4.24Z"/><path class="e" d="M802.23,429.82c-4,0-6.3,1.93-6.32,4.55,0,2.92,3.07,4.13,5.93,4.81l3.27.82c5.25,1.24,10.25,4,10.26,10.05s-4.87,10.33-13.24,10.33c-8.13,0-13.29-3.9-13.55-10.84h6.22c.26,3.67,3.32,5.44,7.28,5.44,4.12,0,6.95-2,7-5,0-2.71-2.51-3.88-6.27-4.84l-4-1c-5.75-1.48-9.31-4.36-9.31-9.37,0-6.17,5.49-10.3,12.82-10.3s12.46,4.18,12.58,10.07h-6.09C808.49,431.58,806,429.82,802.23,429.82Z"/><path class="e" d="M833.39,429.82c-3.95,0-6.31,1.93-6.32,4.55,0,2.92,3.07,4.13,5.93,4.81l3.27.82c5.25,1.24,10.24,4,10.26,10.05s-4.87,10.33-13.24,10.33c-8.13,0-13.3-3.9-13.55-10.84H826c.26,3.67,3.32,5.44,7.28,5.44,4.12,0,7-2,7-5,0-2.71-2.51-3.88-6.27-4.84l-4-1c-5.75-1.48-9.31-4.36-9.31-9.37,0-6.17,5.49-10.3,12.82-10.3s12.45,4.18,12.57,10.07H840C839.65,431.58,837.16,429.82,833.39,429.82Z"/><polygon class="e" points="852.16 424.95 858.48 424.95 858.48 454.55 873.86 454.55 873.86 459.86 852.16 459.86 852.16 424.95"/><polygon class="e" points="882.06 465.11 876.65 465.11 887.9 423.31 893.31 423.31 882.06 465.11"/><polygon class="e" points="895.97 424.95 923.82 424.95 923.82 430.25 913.03 430.25 913.03 459.86 906.76 459.86 906.76 430.25 895.97 430.25 895.97 424.95"/><polygon class="e" points="929.17 424.95 935.5 424.95 935.5 454.55 950.87 454.55 950.87 459.86 929.17 459.86 929.17 424.95"/><path class="e" d="M968.73,429.82c-4,0-6.3,1.93-6.32,4.55,0,2.92,3.07,4.13,5.93,4.81l3.27.82c5.25,1.24,10.25,4,10.26,10.05s-4.87,10.33-13.24,10.33c-8.13,0-13.29-3.9-13.55-10.84h6.22c.26,3.67,3.33,5.44,7.28,5.44,4.13,0,6.95-2,7-5,0-2.71-2.5-3.88-6.27-4.84l-4-1c-5.75-1.48-9.31-4.36-9.31-9.37,0-6.17,5.49-10.3,12.82-10.3s12.46,4.18,12.58,10.07h-6.09C975,431.58,972.5,429.82,968.73,429.82Z"/><path class="d" d="M318.5,334.81H221.82a3,3,0,0,0,0,6H318.5a3,3,0,0,0,0-6"/><path class="d" d="M303.62,322.81l15,15-15,15a3,3,0,0,0,4.24,4.24L325,339.93a3,3,0,0,0,0-4.24l-17.12-17.12a3,3,0,0,0-4.24,4.24Z"/><path class="b" d="M1293.26,397.15l11.27,44.66h-77.44l11.6-44.66Zm89-143H1150.16a9.79,9.79,0,0,0-9.79,9.79h0v11.75h251.68V263.91a9.8,9.8,0,0,0-9.8-9.8Zm-116.06,37.4a44.41,44.41,0,1,0,44.42,44.41,44.41,44.41,0,0,0-44.42-44.41Z"/><path class="c" d="M1260.27,340.1h6.28l-2.77,8.38-4.53,4.19v4.53l-4.54,3.46-1,7.68-6.29-2.07-1.38-5.59,1-14.65-8.37-1.38-3.76-8.9,2.94-4.09-6.86-4.84-4.73-10.3a46.2,46.2,0,0,1,22.82-21.6l2.82,4,10.82,2.77v5.11h-5.38l-3.69,7.8-7.33,4.15h-9.57l.14,5.23,2.77,2.44L1239,331l5.23-1.38,2.45,3.84h9.86ZM1279.46,307l12.21,3.84,7.49-4.63a44.83,44.83,0,0,0-12.59-9.68l-6.07,4.92-8.21-2.46-3,7.69,4.54,2.44Zm23.36,3.84L1292.37,315l-11.26-2.54-8.56.65-3.22,3.55v10.84l11.52,5.37,5.23-3.5,4.11,2.37.08,7.05,4.89,9.43-1.39,5.23,7.31,6.28,1.74,1.38c9.57-16.12,11-32.77,0-50.26Z"/><path class="a" d="M1392.08,289.25a3.46,3.46,0,0,0-3.46,3.46v94.22a6.41,6.41,0,0,1-6.42,6.41H1150.09a6.43,6.43,0,0,1-6.42-6.41V278.3h248.41a3.46,3.46,0,0,0,3.46-3.46V264.47a13.34,13.34,0,0,0-13.3-13.35H1150.09a13.32,13.32,0,0,0-13.33,13.32V386.93a13.34,13.34,0,0,0,13.33,13.33h83.79l-10.13,38.6a3.46,3.46,0,0,0,2.47,4.22,3.7,3.7,0,0,0,.87.11h77.44a3.46,3.46,0,0,0,3.46-3.46,3.24,3.24,0,0,0-.11-.87l-10.13-38.6h84.43a13.35,13.35,0,0,0,13.33-13.33V292.7a3.45,3.45,0,0,0-3.43-3.45Zm-246.53-29.32a6.39,6.39,0,0,1,4.54-1.89H1382.2a6.4,6.4,0,0,1,6.42,6.4h0v6.92H1143.67v-6.92A6.41,6.41,0,0,1,1145.55,259.93Zm154.5,176.32H1231.6l9.45-36h49.57Zm-.11-134.4a47.83,47.83,0,0,0-11.76-8.6l-.23-.12a47.81,47.81,0,1,0,17.68,15.57l0-.05a47.51,47.51,0,0,0-5.65-6.77Zm-6.41,3.46-2.44,1.51-8.79-2.77a1.71,1.71,0,0,0,.27-.2l4.26-3.46a41.65,41.65,0,0,1,6.7,4.94Zm-20-.51.69-1.86,3,.9-3.22,1.22Zm6.33-7.66-.24.19-6.46-1.93a3.45,3.45,0,0,0-4.23,2.07l-2.89,7.59v-3.52a3.45,3.45,0,0,0-2.59-3.35l-7.9-2a41.16,41.16,0,0,1,24.31,1Zm-42.75,9.64a41,41,0,0,1,10.66-7.68l1.18,1.66a3.54,3.54,0,0,0,2,1.34l5.1,1.31a3.46,3.46,0,0,0-1.94,1.76l-3.22,6.8-5.58,3.19h-8.65a3.46,3.46,0,0,0-3.46,3.46v.1l.13,5-3.35-7.32A41.44,41.44,0,0,1,1237.13,306.78Zm10.37,35.66-6.5-1.08-2.26-5.36,1.39-1.9,2.48-.65,1.08,1.7a3.49,3.49,0,0,0,2.92,1.6h7.84l2.77,4.84a3.47,3.47,0,0,0,3,1.75h1.48l-1,3-4,3.62a3.45,3.45,0,0,0-1.11,2.54v2.83l-3.19,2.45a3.47,3.47,0,0,0-1.31,2.28l-.49,3.54-.52-.17-.8-3.21,1-14.11a3.47,3.47,0,0,0-2.86-3.65Zm18.62,34.24a41,41,0,0,1-39.62-51.3l1.24,2.72a3.46,3.46,0,0,0,1.16,1.38l4,2.77-.9,1.24a3.48,3.48,0,0,0-.37,3.37l3.76,8.9a3.47,3.47,0,0,0,2.62,2.08l5.27.87-.83,11.52a3.57,3.57,0,0,0,.1,1.08l1.38,5.59a3.47,3.47,0,0,0,2.26,2.44l6.29,2.07a3.46,3.46,0,0,0,4.37-2.19,2.65,2.65,0,0,0,.14-.62l.86-6.27,3.41-2.62a3.47,3.47,0,0,0,1.38-2.77v-3l3.43-3.16a3.33,3.33,0,0,0,.93-1.45l2.77-8.37a3.46,3.46,0,0,0-2.19-4.37,3.37,3.37,0,0,0-1.09-.18h-4.27l-2.76-4.84a3.48,3.48,0,0,0-3-1.75h-8l-1.39-2.2a3.45,3.45,0,0,0-3.8-1.49l-.2.06a3.45,3.45,0,0,0-1.17-2.46l-1.66-1.45v-.17h6a3.41,3.41,0,0,0,1.71-.45l7.33-4.19a3.52,3.52,0,0,0,1.39-1.52l2.76-5.83h3.2a2.51,2.51,0,0,1,5-.63l2.19,1.17-3.11,3.46a3.52,3.52,0,0,0-.9,2.32v10.84a3.47,3.47,0,0,0,2,3.1l11.52,5.37a3.47,3.47,0,0,0,3.37-.26l3.46-2.31.54.32.06,5.08a3.36,3.36,0,0,0,.39,1.55l4.26,8.24-1,3.94a3.44,3.44,0,0,0,1.08,3.51l6.56,5.63a40.82,40.82,0,0,1-31.87,15.25Zm35.78-21-4.36-3.7.83-3.13a3.49,3.49,0,0,0-.27-2.48l-4.5-8.69-.07-6.22a3.47,3.47,0,0,0-1.74-2.95l-4.11-2.37a3.48,3.48,0,0,0-3.65.11l-3.61,2.42-7.75-3.61v-7.32l1.38-1.55,6.66-.5,10.74,2.43a3.39,3.39,0,0,0,2-.16l7.8-3.07a40.92,40.92,0,0,1,.53,40.8Z"/><path class="d" d="M1111.5,319.81H985.82a3,3,0,0,0,0,6H1111.5a3,3,0,0,0,0-6"/><path class="d" d="M1096.62,307.81l15,15-15,15a3,3,0,1,0,4.24,4.24L1118,324.93a3,3,0,0,0,0-4.24l-17.12-17.12a3,3,0,1,0-4.24,4.24Z"/><path class="d" d="M990.17,359.81h125.68a3,3,0,0,0,0-6H990.17a3,3,0,0,0,0,6"/></svg>